<?xml version="1.0" encoding="UTF-8"?>
<svg width="483px" height="421px" viewBox="0 0 483 421" version="1.1" xmlns="http://www.w3.org/2000/svg" xmlns:xlink="http://www.w3.org/1999/xlink">
    <!-- Generator: Sketch 51.3 (57544) - http://www.bohemiancoding.com/sketch -->
    <title>Slice 5</title>
    <desc>Created with Sketch.</desc>
    <defs></defs>
    <g id="Page-1" stroke="none" stroke-width="1" fill="none" fill-rule="evenodd">
        <path d="M97,35 L99,35 C99.57,36.6709 99.986,38.3367 100.499,40.0239 C104.008,51.5536 110.866,36.3328 119,37 L119,39 L111,45 C129.472,44.2191 147.609,48.5108 156.099,67 C160.351,76.261 159.754,86.532 165.927,95 C174.114,106.228 190.554,112.88 187.671,129 C185.858,139.135 176.437,147.238 168,152.124 C148.432,163.457 123.727,165.233 102,160 C107.784,170.974 112.548,184.098 116.099,196 C117.211,199.727 115.798,204.934 117.889,208.192 C125.496,220.047 150.323,222.998 163,224 C164.611,205.666 179.113,184.771 197,179.44 C204.153,177.308 213.481,180.229 220,176.972 C228.61,172.671 235.397,163.791 244,158.873 C264.412,147.203 286.22,145.577 309,146 L309,145 C299.852,141.482 292.023,134.44 283,130.309 C261.902,120.648 238.514,119.228 217,128.427 C204.435,133.8 193.449,147.507 181,151 C183.888,140.711 198.026,133.321 207,128.756 C238.055,112.961 270.602,116.72 300,134.615 C308.732,139.93 317.123,151.848 326.09,155.397 C330.168,157.011 335.692,155.851 340,156.039 C347.378,156.362 354.684,158.874 362,159.11 C365.899,159.236 369.033,156.82 373,157 L369,161 L369,162 C377.177,163.942 385.126,168.442 392,173.205 C435.872,203.604 433,257.841 433,305 L430,305 C430,268.315 432.049,228.312 409.572,197 C401.48,185.728 391.394,176.628 379,170.259 C375.638,168.532 370.038,164.86 366.09,165.813 C358.648,167.61 354.489,180.567 353,187 C374.188,192.021 387.77,209.716 389.83,231 C390.562,238.565 388.351,245.571 388.34,253 C388.312,270.271 389,287.676 389,305 C384.013,303.345 385,298.54 385,294 L385,262 L384,262 C378.306,281.35 358.434,291.864 341,298.424 C299.304,314.111 253.979,316 210,316 C210,322.301 213.065,338.655 206,341 C206,315.628 205.179,290.207 208.285,265 C209.282,256.903 210.593,248.911 212.63,241 C213.49,237.66 216.242,233.028 215.628,229.576 C213.089,215.293 178.663,199.219 169.709,215.108 C154.933,241.328 159,280.159 159,309 C159,315.994 162.584,338.483 155,341 L155,310 C133.124,307.175 106.486,300.941 88,288.48 C81.279,283.949 76.9011,277.434 70.8302,272.314 C66.663,268.799 61.3424,268.558 57.8002,263.907 C46.2022,248.677 54.3376,231.372 54.8071,215 C54.9646,209.508 48.9112,204.812 48.1852,199 C46.7697,187.67 52.8236,183.286 55.4946,173.576 C56.6836,169.253 52.8391,164.61 53.5085,160 C55.196,148.378 69.7834,145.575 79,142 C74.1948,130.831 70.2053,112.088 73.3179,100.015 C74.41,95.78 79.13,94.341 79.852,89.957 C82.336,74.871 81.553,56.759 99,50 L97,35 Z M338,189 C338.755,194.972 341.364,203.376 338.542,208.996 C334.409,217.231 323.126,219.991 315,222.29 C291.804,228.853 267.772,229.568 244,231.83 C237.784,232.422 225.75,229.405 220.499,233.028 C215.919,236.188 215.029,246.943 214.004,252 C210.007,271.719 210,291.977 210,312 C246.943,312 282.981,310.588 319,301.37 C334.75,297.34 352.289,292.267 365,281.674 C400.815,251.828 389.074,189.423 338,189 Z M113,212 C95.591,226.052 78.389,221.29 59,216 C53.969,227.693 53.0983,244.066 57.9306,256 C60.9114,263.361 67.921,269.439 75.9853,265.312 C88.141,259.091 84.091,240.446 94,235 C92.858,249.35 86.964,261.828 75,270 C87.061,293.249 130.59,304.949 155,306 L156.17,260 L161,227 C144.115,226.86 127.264,220.587 113,212 Z M158,106 C157.973,96.073 157.87,84.532 154.961,75 C152.856,68.1057 149.423,61.9992 143.996,57.1852 C121.805,37.4991 87.236,51.144 83.95,80 C82.828,89.849 85.878,93.901 88.191,103 C89.205,106.988 89.869,112.895 94.108,114.879 C99.529,117.416 111.57,110.077 117,108.344 C131.017,103.871 143.674,104.869 158,106 Z M68,172.529 C40.497,178.885 50.804,221.585 78,215.319 C105.772,208.921 95.767,166.112 68,172.529 Z" id="Shape" fill="#4A4A4A" fill-rule="nonzero"></path>
        <path d="M331,43.4999569 C335.567458,32.0729664 346.7394,24 359.796885,24 C376.917712,24 390.796885,37.8791728 390.796885,55 C390.796885,61.7445516 388.643011,67.9860391 384.985581,73.074145 L381.949392,73.074145 C380.656406,66.6570136 376.708668,62.5491123 370.339211,61.1336774 C366.145364,60.2017114 362.890484,61.3521148 359.845613,63.956543 C359.54526,64.2134495 359.256525,64.4745941 358.840845,64.8639942 C357.142933,60.3816256 353.678197,55.0001416 349.224168,50.9703056 C344.075645,46.3121177 337.960867,43.6332145 331,43.4999569 Z" id="Combined-Shape" fill="#FEC01E" fill-rule="nonzero"></path>
        <path d="M137,96 C142.906,94.131 145.954,89.655 150,97 L152,97 C154.004,86.132 138.227,85.085 137,96 Z M110,99 C115.291,94.806 117.883,91.814 123,98 L125,98 C125.434,86.073 107.194,87.381 110,99 Z" id="Shape" fill="#4A4A4A" fill-rule="nonzero"></path>
        <path d="M82,141 C94.566,141.112 93.356,148.984 101.418,155.062 C105.858,158.409 114.652,158.321 120,158.83 C138.466,160.589 158.455,155.66 172.985,143.985 C179.652,138.629 186.774,129.159 183.397,120 C180.72,112.741 168.205,102.567 162,98 L167,112 C153.783,110.921 142.507,107.308 129,109.439 C118.195,111.144 106.626,119.217 96,119.393 C83.695,119.596 89.114,100.819 80.914,98.832 C75.8999,97.616 77,106.351 77,109 C77,120.126 79.535,130.247 82,141 Z" id="Shape" fill="#D8D8D8" fill-rule="nonzero"></path>
        <path d="M145.941,111.858 C141.286,111.133 127.034,111.312 123.607,114.742 C118.042,120.313 129.236,128.145 134,128.772 C139.489,129.494 145.302,126.622 148.258,121.985 C150.385,118.648 150.951,112.639 145.941,111.858 Z" id="Shape" fill="#4A4A4A" fill-rule="nonzero"></path>
        <path d="M126,117 C129.59,127.444 143.738,127.11 146,116 L126,117 Z" id="Shape" fill="#FFFFFF" fill-rule="nonzero"></path>
        <polygon id="Shape" fill="#4A4A4A" fill-rule="nonzero" points="251 131 252 136 258 133.5 258 131"></polygon>
        <path d="M60,172 C80.93,163.471 108.358,180.897 95.672,205 C92.433,211.153 87.825,214.548 82,218 C90.28,221.467 111.622,213.602 113.117,203.999 C115.06,191.521 102.964,172.572 98.681,161 C96.9,156.188 95.363,149.808 90.895,146.742 C83.497,141.666 62.3647,149.654 58.4568,157.043 C55.7893,162.087 58.1365,167.161 60,172 Z" id="Shape" fill="#FFFFFF" fill-rule="nonzero"></path>
        <path d="M226,180 C236.181,182.418 249.213,190.285 252,201 C244.2,197.051 239.422,189.1 231,185.313 C208.659,175.269 182.7,184.517 173,207 C192.881,204.487 206.804,209.547 219,226 L227,222 L228,226 L224,227 C235.013,231.621 255.185,227.035 267,226.086 C279.734,225.062 292.461,223.553 305,220.996 C313.786,219.205 329.033,216.963 334.397,208.957 C337.274,204.662 335.655,198.726 335,194 C333.134,180.535 328.446,162.258 316.91,153.652 C311.023,149.261 301.084,148.852 294,149.015 C272.725,149.502 235.871,158.834 226,180 Z" id="Path" fill="#A0CCFF" fill-rule="nonzero"></path>
        <path d="M74.473,156.086 C70.8945,158.338 75.2476,163.411 78.381,160.954 C81.278,158.682 77.414,154.234 74.473,156.086 Z" id="Shape" fill="#4A4A4A" fill-rule="nonzero"></path>
        <polygon id="Shape" fill="#A0CCFF" fill-rule="nonzero" points="328 160 337 185 347.697 185.382 360 163"></polygon>
        <path d="M144,170 L151,166 L144,170 Z" id="Shape" fill="#000000" fill-rule="nonzero"></path>
        <path d="M280,79.574145 L301,79.574145 C302.333333,62.9074784 309.666667,53.2408117 323,50.574145 C343,46.574145 353,64.574145 355,70.574145 C357,76.574145 359,65.574145 368,67.574145 C374,68.9074784 377.333333,72.9074784 378,79.574145 L389,79.574145" id="Path-32-Copy" stroke="#4A4A4A" stroke-width="5" fill-rule="nonzero"></path>
        <path d="M225.702558,330.067567 C225.656921,331.840234 226.80288,333.490561 228.585596,334.008851 C233.632313,335.476087 237.57528,337.150224 240.143072,338.879072 C242.190845,340.257801 243,341.379905 243,342.055366 C243,342.785521 242.06541,344.015159 239.744069,345.492769 C236.869302,347.322653 232.48736,349.068919 226.922047,350.567272 C215.1763,353.729589 199.143127,355.555366 182,355.555366 C164.856873,355.555366 148.8237,353.729589 137.077953,350.567272 C131.51264,349.068919 127.130698,347.322653 124.255931,345.492769 C121.93459,344.015159 121,342.785521 121,342.055366 C121,341.715406 121.215115,341.237252 121.821969,340.570035 C122.677036,339.629918 124.087398,338.615974 126.012256,337.608042 C130.186026,335.422491 136.395777,333.454365 144.053608,331.922271 C145.9223,331.548403 147.224317,329.928788 147.268495,328.100317 L143.268883,328 C127.328239,331.189228 117,336.297566 117,342.055366 C117,351.72035 146.101491,359.555366 182,359.555366 C217.898509,359.555366 247,351.72035 247,342.055366 C247,337.465916 240.438027,333.289097 229.702282,330.167886 L225.702558,330.067567 Z" id="Oval-18" fill="#A3A3A3" fill-rule="nonzero"></path>
        <path d="M441.743647,298.510914 C441.708489,299.806325 442.591327,301.012333 443.964718,301.391083 C447.852672,302.463294 450.890304,303.686702 452.868512,304.950091 C454.446102,305.957624 455.069469,306.777623 455.069469,307.271229 C455.069469,307.804804 454.349468,308.703385 452.561124,309.783177 C450.346425,311.1204 446.970608,312.396517 442.683133,313.491468 C433.634296,315.802392 421.282458,317.136614 408.07552,317.136614 C394.868582,317.136614 382.516744,315.802392 373.467907,313.491468 C369.180431,312.396517 365.804615,311.1204 363.589916,309.783177 C361.801572,308.703385 361.08157,307.804804 361.08157,307.271229 C361.08157,307.022797 361.247293,306.673376 361.71481,306.185795 C362.373547,305.498787 363.460079,304.757827 364.942975,304.021261 C368.158417,302.424128 372.942363,300.985882 378.8419,299.866275 C380.281526,299.593064 381.28459,298.409499 381.318625,297.073308 L378.237354,297 C365.956799,299.33059 358,303.063606 358,307.271229 C358,314.334102 380.419574,320.059691 408.07552,320.059691 C435.731465,320.059691 458.151039,314.334102 458.151039,307.271229 C458.151039,303.9174 453.095744,300.865109 444.825005,298.584224 L441.743647,298.510914 Z" id="Oval-18-Copy" fill="#A3A3A3" fill-rule="nonzero"></path>
        <path d="M205,367 L209,367 C209,384.673112 195.568542,399 179,399 C162.431458,399 149,384.673112 149,367 L153,367 C153,382.519614 164.700362,395 179,395 C193.299638,395 205,382.519614 205,367 Z" id="Oval-19" fill="#C7C7C7" fill-rule="nonzero"></path>
        <path d="M430,327 L433,327 C433,341.911688 421.807119,354 408,354 C394.192881,354 383,341.911688 383,327 L386,327 C386,340.30421 395.903509,351 408,351 C420.096491,351 430,340.30421 430,327 Z" id="Oval-19-Copy" fill="#C7C7C7" fill-rule="nonzero"></path>
        <path d="M40.8181464,130.801343 C47.3586956,142.463013 43.3656658,137.417 52.5457701,146.135019" id="Path-43" stroke="#4A4A4A" stroke-width="3" fill-rule="nonzero"></path>
        <path d="M30.8570579,147.074426 C36.4747899,148.550282 42.0925219,150.026137 47.710254,151.501993" id="Path-44" stroke="#4A4A4A" stroke-width="3" fill-rule="nonzero"></path>
        <path d="M30.8926132,170.32757 C36.06684,167.635974 41.2410669,164.944378 46.4152937,162.252782" id="Path-45" stroke="#4A4A4A" stroke-width="3" fill-rule="nonzero"></path>
        <path d="M38.8394657,229.407466 C4.57699109,251.761333 41.7350471,282.267258 63.5073974,294.778087" id="Path-46" stroke="#4A4A4A" stroke-width="3" stroke-linecap="round" fill-rule="nonzero"></path>
    </g>
</svg>