<?xml version="1.0" encoding="UTF-8"?>
<svg width="118px" height="118px" viewBox="0 0 118 118" version="1.1" xmlns="http://www.w3.org/2000/svg" xmlns:xlink="http://www.w3.org/1999/xlink">
    <!-- Generator: Sketch 51.3 (57544) - http://www.bohemiancoding.com/sketch -->
    <title>Slice</title>
    <desc>Created with Sketch.</desc>
    <defs></defs>
    <g id="Page-1" stroke="none" stroke-width="1" fill="none" fill-rule="evenodd">
        <g id="users" transform="translate(0.000000, 7.000000)" fill-rule="nonzero">
            <rect id="Rectangle-path" x="0" y="0" width="118" height="119"></rect>
            <ellipse id="Oval" fill="#FFD098" cx="21.5" cy="55" rx="11.5" ry="15"></ellipse>
            <ellipse id="Oval" fill="#FFD098" cx="96.5" cy="55" rx="11.5" ry="15"></ellipse>
            <ellipse id="Oval" fill="#FFD098" cx="58.5" cy="48" rx="19.5" ry="22"></ellipse>
            <path d="M41.9375,50.8314 L41.9375,43.0464 C41.9375,42.3085 41.628,40.666 42.0217,40.0371 C42.2538,39.6662 43.0225,39.5808 43.4112,39.4637 C44.6755,39.0825 45.9131,38.6157 47.1775,38.2344 C51.9551,36.794 56.69,35.1471 61.4237,33.5678 C62.7851,33.1136 64.1543,32.6797 65.5175,32.2294 C65.9082,32.1003 66.6781,31.712 67.0731,31.8957 C67.5105,32.0991 67.8249,32.6231 68.1448,32.9668 C68.8832,33.7603 69.6352,34.5393 70.362,35.3433 C71.2371,36.3114 72.1323,37.284 73.05,38.2115 C73.5343,38.701 74.2961,39.3173 74.6032,39.9324 C74.9896,40.7048 74.6875,42.2688 74.6875,43.1284 L74.6875,50.8314 C76.1367,49.8098 77.364,48.2349 78.6175,46.9799 C79.0744,46.5225 79.8964,45.9585 80.124,45.3409 C80.5432,44.2026 80.106,42.436 80.0912,41.2436 C80.0307,36.1108 78.7387,30.3887 75.0936,26.5749 C73.7197,25.1373 71.955,23.9999 70.1025,23.2815 C69.2747,22.9605 67.777,22.8756 67.1051,22.3351 C66.3516,21.729 65.8872,20.063 65.4558,19.1996 C65.2938,18.8754 65.1195,18.257 64.7632,18.1018 C64.3144,17.9064 63.5458,18.0524 63.0612,18.0524 L59.1312,18.0524 C56.28,18.0524 53.5562,18.3789 50.8619,19.3679 C44.752,21.6105 40.0826,26.8633 37.8397,32.8849 C36.7209,35.8884 36.4519,38.9689 36.4519,42.145 C36.4519,43.0639 36.1835,44.4783 36.5012,45.3409 C36.7288,45.9585 37.5505,46.5225 38.0075,46.9799 C39.2614,48.2349 40.4885,49.8098 41.9375,50.8314 Z M11.0294,61.5666 C10.3334,59.0877 10.7837,56.1023 10.7837,53.5357 C10.7837,52.938 10.5032,51.3408 10.915,50.8846 C11.2172,50.5499 11.9253,50.451 12.3394,50.3125 C13.4905,49.927 14.6266,49.4951 15.7781,49.1105 C19.8627,47.7465 23.8837,46.1848 27.9775,44.8493 L31.3058,49.2744 L32.5021,50.9134 L32.5625,54.0274 L32.3169,61.5666 C33.9247,61.1844 35.0332,59.7223 35.2407,58.1248 C35.306,57.6222 35.1579,57.144 35.1863,56.6497 C35.2815,54.9877 35.2644,53.3201 35.2644,51.6509 C35.2644,47.9806 34.9221,43.8448 31.58,41.6008 C30.7651,41.0536 29.8134,40.6354 28.8781,40.3443 C28.3774,40.1883 27.6921,40.1378 27.2492,39.8555 C26.4444,39.3428 26.5042,37.9019 25.7966,37.2775 C25.5126,37.027 24.8906,37.1462 24.5387,37.1462 C23.4001,37.1462 22.2359,37.0756 21.1,37.1535 C16.6578,37.4581 12.3172,39.8749 10.0818,43.7839 C8.59761,46.3795 8,49.3405 8,52.3065 C8,53.7628 8.05576,55.2084 8.11913,56.6497 C8.13771,57.0714 7.98706,57.4763 8.033,57.9024 C8.2114,59.5575 9.27504,61.2643 11.0294,61.5666 Z M85.3081,61.5666 C85.101,58.9666 85.0625,56.4017 85.0625,53.7815 C85.0625,53.1011 84.7677,51.5186 85.1468,50.9477 C85.3622,50.6233 86.0278,50.5435 86.3725,50.4173 C87.4852,50.0105 88.606,49.6232 89.7294,49.2471 C93.9492,47.834 98.106,46.2274 102.338,44.8493 C103.276,47.0688 105.678,48.5847 106.735,50.7495 C107.111,51.5195 106.841,52.9328 106.841,53.7815 C106.841,56.3035 107.229,59.1184 106.596,61.5666 C110.209,60.9438 109.625,56.3485 109.625,53.6996 C109.625,49.6508 109.906,44.5656 106.268,41.8564 C105.415,41.2209 104.414,40.7313 103.402,40.4032 C102.85,40.224 102.123,40.1762 101.618,39.8969 C100.799,39.4431 100.826,37.3154 99.8786,37.1583 C99.0246,37.0169 98.0454,37.1462 97.18,37.1462 C95.5875,37.1462 94.0556,37.2322 92.5131,37.6728 C87.1102,39.216 83.4561,43.6077 82.5727,49.1105 C82.1895,51.4975 82.2059,54.1641 82.4302,56.5678 C82.5113,57.4305 82.3238,58.156 82.5972,59.0262 C82.9804,60.2452 84.0644,61.2709 85.3081,61.5666 Z M49.7156,45.377 C46.1369,45.9523 47.062,51.3322 50.6162,50.8068 C54.0915,50.293 53.1684,44.8219 49.7156,45.377 Z M66.0906,45.377 C62.5119,45.9523 63.437,51.3322 66.9912,50.8068 C70.4665,50.293 69.5433,44.8219 66.0906,45.377 Z" id="Shape" fill="#0A2F3D"></path>
            <path d="M47.6106,70.9905 L47.6106,66.5654 C52.5382,69.7783 58.2059,70.7428 63.8898,69.1829 C65.6745,68.6931 67.9535,67.8728 69.3075,66.5654 L69.3894,66.5654 L69.3894,70.9905 C69.3894,71.4422 69.2265,72.2957 69.4735,72.6886 C69.6835,73.0228 70.3499,73.0748 70.6994,73.1802 C71.7808,73.5062 72.8536,73.8952 73.8925,74.3381 C76.0826,75.2715 78.1623,76.4032 80.115,77.7692 C81.109,78.4642 81.985,79.323 82.9806,80.0048 C83.6995,78.4847 80.7661,75.4964 82,74.3851 C84.8231,71.8425 86.8908,71.099 90.7356,70.5808 L90.7356,68.5321 C91.6452,68.9113 92.4755,69.3656 93.4375,69.6192 C96.403,70.4008 98.892,69.6709 101.625,68.5321 L101.625,70.5808 C103.433,70.8245 105.327,71.6347 106.947,72.4454 C113.235,75.5919 118,81.7962 118,89.019 L118,107 L118,119.5 L60.5,119.5 L27.2644,119.5 L0,119.5 L0,89.019 C0,81.7912 4.76057,75.5944 11.0531,72.4454 C12.676,71.6333 14.5638,70.8249 16.375,70.5808 L16.375,68.5321 C19.1078,69.6709 21.5966,70.4008 24.5625,69.6192 C25.5247,69.3656 26.3543,68.9113 27.2644,68.5321 L27.2644,70.5808 C31.1054,71.0985 33.6802,71.8451 36.5,74.3851 C37.7339,75.4964 33.3008,78.4847 34.0194,80.0048 C36.8784,77.8266 39.5962,75.791 42.9437,74.3851 C44.0451,73.9226 45.1616,73.5309 46.3006,73.1752 C46.6486,73.0665 47.3171,73.0216 47.5265,72.6886 C47.7735,72.2957 47.6106,71.4422 47.6106,70.9905 Z" id="Shape" fill="#60133D"></path>
        </g>
    </g>
</svg>