<svg width="118" height="118" viewBox="0 0 118 118" fill="none" xmlns="http://www.w3.org/2000/svg">
<g clip-path="url(#clip0)">
<path d="M93.666 91.354C89 82.7675 59 77.3792 59 77.3792C59 77.3792 29 82.7675 24.334 91.354C20.885 103.27 18 118.41 18 118.41H59H100C100 118.41 98.051 102.176 93.666 91.354Z" fill="#F1C9A5"/>
<path d="M59 77.3792C59 77.3792 89 82.7675 93.666 91.354C98.052 102.176 100 118.41 100 118.41H59V77.3792Z" fill="#E4B692"/>
<path d="M67.167 59.9219H50.833V86.4951H67.167V59.9219Z" fill="#F1C9A5"/>
<path d="M67.167 59.9219H59V86.4951H67.167V59.9219Z" fill="#E4B692"/>
<path opacity="0.1" d="M50.833 72.2354C52.302 76.3347 58.23 78.6843 62.584 78.6843C64.159 78.6843 65.691 78.4277 67.167 77.9581V59.9219H50.833V72.2354Z" fill="#DDAC8C"/>
<path d="M80 43.1545C80 26.557 70.598 17.1189 59 17.1189C47.402 17.1189 38 26.557 38 43.1545C38 65.4797 47.402 73.2088 59 73.2088C70.597 73.2088 80 64.5494 80 43.1545Z" fill="#F1C9A5"/>
<path d="M76.803 54.6641C72.996 54.2772 70.426 50.2896 71.071 45.7636C71.708 41.2336 75.313 37.8702 79.122 38.2551C82.927 38.6401 85.493 42.6256 84.851 47.1556C84.212 51.6865 80.61 55.0471 76.803 54.6641Z" fill="#E4B692"/>
<path d="M33.298 47.1566C32.655 42.6266 35.222 38.641 39.025 38.2561C42.835 37.8711 46.441 41.2336 47.08 45.7646C47.723 50.2906 45.15 54.2782 41.346 54.6651C37.538 55.0471 33.936 51.6866 33.298 47.1566Z" fill="#F1C9A5"/>
<path d="M80 43.1545C80 26.557 70.598 17.1189 59 17.1189V73.2088C70.597 73.2088 80 64.5494 80 43.1545Z" fill="#E4B692"/>
<path d="M77.89 57.0659C76.76 60.1533 74.849 63.8648 71.396 63.8648C67.08 63.8648 63.993 60.4547 59.042 60.4547C59.028 60.4547 59.015 60.4566 59.001 60.4566C58.986 60.4566 58.973 60.4547 58.958 60.4547C54.008 60.4547 50.922 63.8648 46.604 63.8648C43.151 63.8648 41.241 60.1533 40.111 57.0659L39.133 51.1187V58.2354C39.133 58.2354 40.774 66.6168 43.923 68.6416C46.488 70.857 54.861 74.6521 58.956 74.6521H58.957C58.971 74.6521 58.985 74.6502 59 74.6502C59.014 74.6502 59.028 74.6521 59.041 74.6521H59.043C63.139 74.6521 71.512 70.858 74.076 68.6416C77.225 66.6168 78.866 58.2354 78.866 58.2354V51.1187L77.89 57.0659Z" fill="#303030"/>
<path d="M48.831 20.2945C48.831 20.2945 52.731 35.641 74.463 43.4041C72.419 39.9736 72.048 35.8208 72.048 35.8208C72.048 35.8208 75.577 39.4321 81.334 42.3212C84.492 36.1834 88.207 26.9747 79.849 21.9198C71.491 16.864 51.617 7.83514 48.831 20.2945Z" fill="#303030"/>
<path d="M41.588 42.1404C41.588 42.1404 43.201 24.6203 49.916 20.7446C44.188 18.3153 35.459 25.7101 36.387 30.2235C37.316 34.7379 41.588 42.1404 41.588 42.1404Z" fill="#303030"/>
<path d="M93.666 91.3537C90.94 86.3396 79.584 82.4192 70.601 80.0229C70.249 85.9625 65.199 90.6771 59 90.6771C52.802 90.6771 47.751 85.9625 47.4 80.0229C38.417 82.4192 27.06 86.3396 24.334 91.3537C20.885 103.27 18 118.41 18 118.41H59H100C100 118.41 98.051 102.176 93.666 91.3537Z" fill="#FB621E"/>
<path opacity="0.2" d="M46.727 82.9392C47.099 88.8787 52.442 93.5934 58.999 93.5934C65.557 93.5934 70.899 88.8787 71.271 82.9392C79.504 85.0147 89.611 88.2362 94.043 92.32C93.919 91.9933 93.793 91.6706 93.664 91.3537C90.938 86.3396 79.582 82.4192 70.599 80.0229C70.247 85.9625 65.197 90.6771 58.998 90.6771C52.8 90.6771 47.749 85.9625 47.398 80.0229C38.415 82.4192 27.058 86.3396 24.332 91.3537C24.251 91.6346 24.17 91.9195 24.089 92.2033C28.589 88.1759 38.573 84.9942 46.727 82.9392Z" fill="#E53D0C"/>
<path d="M43.983 80.9805C45.121 88.0573 51.401 93.4777 59 93.4777C66.599 93.4777 72.879 88.0573 74.017 80.9805C72.856 80.6383 71.71 80.3194 70.601 80.0239C70.249 85.9634 65.199 90.6781 59 90.6781C52.802 90.6781 47.751 85.9634 47.4 80.0239C46.29 80.3194 45.144 80.6383 43.983 80.9805Z" fill="#E53D0C"/>
<path d="M62.417 65.8043C62.417 65.8043 61.917 63.6404 59 63.6404C56.333 63.6404 55.583 65.8043 55.583 65.8043H62.417Z" fill="white"/>
</g>
<defs>
<clipPath id="clip0">
<rect width="118" height="118" fill="white"/>
</clipPath>
</defs>
</svg>
