<svg width="84" height="98" viewBox="0 0 84 98" fill="none" xmlns="http://www.w3.org/2000/svg">
<path d="M71.9264 38.5345C71.9264 16.3108 60.2664 0 41.7467 0C23.3298 0 11.699 16.1305 11.57 38.1649C10.8949 38.0121 10.1936 37.9289 9.47262 37.9289C4.24109 37.9289 0 42.17 0 47.4016C0 51.6999 2.86385 55.3273 6.78662 56.4855C6.87799 61.6382 11.0806 65.7876 16.2549 65.7876C17.8364 65.7876 19.326 65.3981 20.6364 64.7126C21.9984 68.2737 25.4454 70.8034 29.4849 70.8034C34.7165 70.8034 38.9576 66.5623 38.9576 61.3307C38.9576 60.5662 38.8646 59.8239 38.6935 59.1117C50.7185 59.5716 63.4079 57.306 68.8833 52.3142C76.0824 45.7518 71.9264 44.5186 71.9264 38.5345Z" fill="#682234"/>
<path d="M83.4934 47.4016C83.4934 42.17 79.2523 37.9289 74.0207 37.9289C73.2995 37.9289 72.5982 38.0121 71.9234 38.1649C71.7944 16.1305 60.1633 0 41.7467 0C41.738 0 41.7295 0.000272774 41.721 0.000272774V59.1704C42.7489 59.1707 43.7767 59.151 44.7996 59.112C44.6285 59.8242 44.5355 60.5664 44.5355 61.331C44.5355 66.5625 48.7766 70.8036 54.0081 70.8036C58.0479 70.8036 61.495 68.2739 62.8566 64.7129C64.1673 65.3981 65.657 65.7879 67.2382 65.7879C72.4127 65.7879 76.6151 61.6384 76.7065 56.4857C80.6295 55.3273 83.4934 51.6999 83.4934 47.4016Z" fill="#581A2B"/>
<path d="M49.4741 49.3057H42.1408H41.7982H41.6948H41.3522H34.019C34.019 69.6415 24.0818 67.8019 24.0818 67.8019C24.0818 80.7227 38.0375 84.8208 41.3519 86.0248V86.4441C41.3519 86.4441 41.4973 86.4141 41.7464 86.3462C41.9951 86.4141 42.1408 86.4441 42.1408 86.4441V86.0248C45.4553 84.8208 59.4109 80.7224 59.4109 67.8019C59.4112 67.8019 49.4741 69.6415 49.4741 49.3057Z" fill="#F3D8B6"/>
<path d="M49.4741 49.3054H42.1409H41.7983H41.7467V86.3459C41.9955 86.4139 42.1411 86.4439 42.1411 86.4439V86.0246C45.4556 84.8206 59.4113 80.7221 59.4113 67.8017C59.4113 67.8017 49.4741 69.6413 49.4741 49.3054Z" fill="#EEC8A2"/>
<path d="M73.656 86.7433V97.84H9.83704V86.7433C9.83704 78.4425 13.7587 71.2053 20.0947 67.4001C21.7431 66.4069 23.5562 65.6461 25.5076 65.1644C27.1314 64.7585 28.8502 64.5447 30.6472 64.5447L41.7467 71.0918L52.8461 64.5447C54.6432 64.5447 56.3619 64.7585 57.9857 65.1644C59.9371 65.6461 61.7505 66.4066 63.3986 67.4001C69.7344 71.2053 73.656 78.4425 73.656 86.7433Z" fill="#F3D8B6"/>
<path d="M73.6558 86.7435V97.8399H41.7467V71.0917L51.5665 65.3008L52.8458 64.5452C54.6434 64.5452 56.3619 64.7579 57.9849 65.1644C59.938 65.6472 61.7492 66.4055 63.3995 67.4011C69.7333 71.2063 73.6558 78.443 73.6558 86.7435Z" fill="#EEC8A2"/>
<path d="M41.9935 32.9858H24.2665C24.4956 39.0321 25.4531 44.5002 26.5654 46.5536C29.0319 51.1073 34.5362 57.1801 41.7472 57.1801C48.9569 57.1801 54.4604 51.1076 56.9276 46.5536C58.0397 44.5002 58.9974 39.0321 59.2268 32.9858H41.9935Z" fill="#F3DBC4"/>
<path d="M41.9936 32.9854H41.7208V57.1788C41.7295 57.1788 41.7383 57.1793 41.747 57.1793C48.9567 57.1793 54.4602 51.1066 56.9274 46.5529C58.0395 44.4994 58.9972 39.0317 59.2266 32.9851H41.9936V32.9854Z" fill="#EDCEAE"/>
<path d="M54.1535 73.0752H53.3475C51.4083 77.4142 47.0674 80.4382 42.0195 80.4382C35.1649 80.4382 29.6082 74.8654 29.6082 67.991C29.6082 66.7736 29.7855 65.5982 30.1104 64.4861C28.5062 64.524 26.967 64.7313 25.5055 65.0974C23.5524 65.5802 21.7412 66.3385 20.0909 67.3341C13.7571 71.1393 9.83459 78.376 9.83459 86.6765V88.305H20.0107L19.9272 88.4414V97.8976H63.5711V88.4414L54.1535 73.0752Z" fill="#AEC7EA"/>
<path d="M73.6585 86.677C73.6585 78.3765 69.736 71.1398 63.4022 67.3346C61.7519 66.339 59.9407 65.5807 57.9876 65.0979C56.6947 64.7741 55.3401 64.5755 53.9342 64.5073C54.2553 65.6134 54.4307 66.7817 54.4307 67.9915C54.4307 74.8659 48.874 80.4387 42.0195 80.4387C41.9289 80.4387 41.8394 80.4338 41.7494 80.4319V97.8981H63.5713V88.4419L63.4879 88.3055H73.6585V86.677Z" fill="#96B3D4"/>
</svg>
