<svg width="93" height="126" viewBox="0 0 93 126" fill="none" xmlns="http://www.w3.org/2000/svg">
<path fill-rule="evenodd" clip-rule="evenodd" d="M6.67859 0H0V6.84128H4V4H6.67859V0ZM19.7786 0H10.4214V4H19.7786V0ZM32.8785 0H23.5214V4H32.8785V0ZM45.9786 0H36.6215V4H45.9786V0ZM59.0786 0H49.7214V4H59.0786V0ZM68.3284 0H62.8214V4H65.5V6.19644H68.868L70.2822 7.61066L73.1107 4.78223L68.3284 0ZM73.6393 10.9678L82.0322 19.3607L84.8607 16.5322L76.4678 8.13934L73.6393 10.9678ZM65.5 9.55356V17.9464H69.5V9.55356H65.5ZM0 10.7143V20.3968H4V10.7143H0ZM85.3893 22.7178L86.8036 24.132V27.5H89V30.5255H93V24.6716L88.2178 19.8893L85.3893 22.7178ZM69.5 21.3036H65.5V27.5H71.6964V23.5H69.5V21.3036ZM75.0536 27.5H83.4464V23.5H75.0536V27.5ZM0 24.2698V33.9524H4V24.2698H0ZM93 44.597V34.5459H89V44.597H93ZM0 37.8254V47.5079H4V37.8254H0ZM93 58.6684V48.6173H89V58.6684H93ZM0 51.381V61.0635H4V51.381H0ZM93 72.7398V62.6888H89V72.7398H93ZM0 64.9365V74.619H4V64.9365H0ZM93 86.8112V76.7602H89V86.8112H93ZM0 78.4921V88.1746H4V78.4921H0ZM93 100.883V90.8316H89V100.883H93ZM0 92.0476V101.73H4V92.0476H0ZM93 114.954V104.903H89V114.954H93ZM0 105.603V115.286H4V105.603H0ZM93 126V118.974H89V122H85.7024V126H93ZM4 119.159H0V126H7.29761V122H4V119.159ZM11.5357 126H22.131V122H11.5357V126ZM26.369 126H36.9643V122H26.369V126ZM41.2024 126H51.7976V122H41.2024V126ZM56.0357 126H66.631V122H56.0357V126ZM70.869 126H81.4643V122H70.869V126ZM59.4991 79.8279L47.7756 68.1045L36.0522 79.8279L31.2563 75.032L42.9797 63.3085L30.7234 51.0522L35.5193 46.2563L47.7756 58.5126L60.0319 46.2563L64.8279 51.0522L52.5716 63.3085L64.295 75.032L59.4991 79.8279Z" fill="black"/>
</svg>
