<svg width="207" height="243" viewBox="0 0 207 243" fill="none" xmlns="http://www.w3.org/2000/svg">
<path d="M58.2527 161C55.2151 161 52.7527 158.538 52.7527 155.5C52.7527 152.462 55.2151 150 58.2527 150H94.7727C97.8102 150 100.273 152.462 100.273 155.5C100.273 158.538 97.8102 161 94.7727 161H58.2527Z" fill="#C4C4C4"/>
<path fill-rule="evenodd" clip-rule="evenodd" d="M1 127.5L24.3724 104.268L24.006 39L45.006 38.7711V20H65.006V0H170.006V73H203.006C204.663 73 206.006 74.3431 206.006 76V186.495C206.006 187.324 205.663 188.116 205.059 188.683L148.059 242.187L146.006 243H0.00601196V129L1 127.5ZM149.043 133C149.839 133 150.437 132.063 151 131.5L200.006 83.2461V185.197L149.006 233.069L149.043 138.5V133ZM10.1982 127L24.4186 112.5L24.5 127H10.1982ZM6.00601 237L6.00601 133H143.006V237H6.00601ZM149.006 20H71.006V6H164.006V110.783L149.006 125.793V20ZM51.006 26H143.006V127H129.006V39H51.0017L51.006 26ZM30.006 45H123.006V127H30L30.006 45ZM195.767 79H170.006V104.778L195.767 79Z" fill="#C4C4C4"/>
</svg>
