<?xml version="1.0" encoding="UTF-8"?>
<svg width="82px" height="80px" viewBox="0 0 82 80" version="1.1" xmlns="http://www.w3.org/2000/svg" xmlns:xlink="http://www.w3.org/1999/xlink">
    <!-- Generator: Sketch 51.3 (57544) - http://www.bohemiancoding.com/sketch -->
    <title>basket - simple-line-icons</title>
    <desc>Created with Sketch.</desc>
    <defs></defs>
    <g id="Page-1" stroke="none" stroke-width="1" fill="none" fill-rule="evenodd">
        <path d="M81.359375,21.8671875 C81.5729177,22.1875016 81.7063799,22.5611958 81.7597656,22.9882812 C81.8131513,23.4153667 81.7864589,23.8157533 81.6796875,24.1894531 L69.4277344,60.2246094 C69.2675773,60.7050805 68.9606142,61.1054671 68.5068359,61.4257812 C68.0530576,61.7460954 67.5592475,61.90625 67.0253906,61.90625 L32.4316406,61.90625 C31.8977838,61.90625 31.4039736,61.7327491 30.9501953,61.3857422 C30.496417,61.0387352 30.1894539,60.59831 30.0292969,60.0644531 L15.8554688,8.01367188 C15.481769,6.73241547 15.0813823,5.98502711 14.6542969,5.77148438 C14.2272114,5.55794164 13.9069021,5.45117188 13.6933594,5.45117188 L2.72265625,5.45117188 C2.02864236,5.45117188 1.44140865,5.2109399 0.9609375,4.73046875 C0.480466348,4.2499976 0.240234375,3.66276389 0.240234375,2.96875 C0.240234375,2.22135043 0.480466348,1.60742428 0.9609375,1.12695312 C1.44140865,0.646481973 2.02864236,0.40625 2.72265625,0.40625 L13.6933594,0.40625 C14.4941446,0.40625 15.6686121,0.739905518 17.2167969,1.40722656 C18.7649817,2.07454761 19.9394491,3.79621008 20.7402344,6.57226562 L24.9042969,20.7460938 L79.2773438,20.7460938 C79.6510435,20.7460938 80.0247377,20.8528635 80.3984375,21.0664062 C80.7721373,21.279949 81.0924466,21.5468734 81.359375,21.8671875 Z M65.2636719,56.78125 L75.59375,25.8710938 L26.265625,25.8710938 L34.4335938,56.78125 L65.2636719,56.78125 Z M60.21875,67.03125 C61.9804776,67.03125 63.4886005,67.6585224 64.7431641,68.9130859 C65.9977276,70.1676495 66.625,71.6757724 66.625,73.4375 C66.625,75.1992276 65.9977276,76.7073505 64.7431641,77.9619141 C63.4886005,79.2164776 61.9804776,79.84375 60.21875,79.84375 C58.4570224,79.84375 56.9488995,79.2164776 55.6943359,77.9619141 C54.4397724,76.7073505 53.8125,75.1992276 53.8125,73.4375 C53.8125,71.6757724 54.4397724,70.1676495 55.6943359,68.9130859 C56.9488995,67.6585224 58.4570224,67.03125 60.21875,67.03125 Z M37.15625,67.03125 C38.9179776,67.03125 40.4261005,67.6585224 41.6806641,68.9130859 C42.9352276,70.1676495 43.5625,71.6757724 43.5625,73.4375 C43.5625,75.1992276 42.9352276,76.7073505 41.6806641,77.9619141 C40.4261005,79.2164776 38.9179776,79.84375 37.15625,79.84375 C35.3945224,79.84375 33.8863995,79.2164776 32.6318359,77.9619141 C31.3772724,76.7073505 30.75,75.1992276 30.75,73.4375 C30.75,71.6757724 31.3772724,70.1676495 32.6318359,68.9130859 C33.8863995,67.6585224 35.3945224,67.03125 37.15625,67.03125 Z" id="basket---simple-line-icons" fill="#000000"></path>
    </g>
</svg>