<?xml version="1.0" encoding="UTF-8"?>
<svg width="84px" height="84px" viewBox="0 0 84 84" version="1.1" xmlns="http://www.w3.org/2000/svg" xmlns:xlink="http://www.w3.org/1999/xlink">
    <!-- Generator: Sketch 50.2 (55047) - http://www.bohemiancoding.com/sketch -->
    <title>check - simple-line-icons copy</title>
    <desc>Created with Sketch.</desc>
    <defs></defs>
    <g id="Page-1" stroke="none" stroke-width="1" fill="none" fill-rule="evenodd">
        <path d="M42,0 C47.796904,0 53.2519276,1.09373906 58.3652344,3.28125 C63.4785412,5.46876094 67.9355279,8.46287162 71.7363281,12.2636719 C75.5371284,16.0644721 78.5312391,20.5214588 80.71875,25.6347656 C82.9062609,30.7480724 84,36.203096 84,42 C84,47.796904 82.9062609,53.2519276 80.71875,58.3652344 C78.5312391,63.4785412 75.5371284,67.9355279 71.7363281,71.7363281 C67.9355279,75.5371284 63.4785412,78.5312391 58.3652344,80.71875 C53.2519276,82.9062609 47.796904,84 42,84 C36.203096,84 30.7480724,82.9062609 25.6347656,80.71875 C20.5214588,78.5312391 16.0644721,75.5371284 12.2636719,71.7363281 C8.46287162,67.9355279 5.46876094,63.4785412 3.28125,58.3652344 C1.09373906,53.2519276 0,47.796904 0,42 C0,36.203096 1.09373906,30.7480724 3.28125,25.6347656 C5.46876094,20.5214588 8.46287162,16.0644721 12.2636719,12.2636719 C16.0644721,8.46287162 20.5214588,5.46876094 25.6347656,3.28125 C30.7480724,1.09373906 36.203096,0 42,0 Z M42,79 C47.1205613,79 51.9244567,78.0237927 56.4118304,76.0713489 C60.899204,74.1189051 64.8083911,71.4652713 68.1395089,68.1103679 C71.4706268,64.7554645 74.1134575,60.836886 76.0680804,56.3545151 C78.0227032,51.8721441 79,47.0736042 79,41.9587514 C79,36.8438986 78.0227032,32.0453587 76.0680804,27.5629877 C74.1134575,23.0806168 71.4706268,19.1757877 68.1395089,15.8483835 C64.8083911,12.5209793 60.899204,9.88109486 56.4118304,7.92865106 C51.9244567,5.97620726 47.1205613,5 42,5 C36.8794387,5 32.0755433,5.97620726 27.5881696,7.92865106 C23.100796,9.88109486 19.1916089,12.5209793 15.8604911,15.8483835 C12.5293732,19.1757877 9.88654251,23.0806168 7.93191964,27.5629877 C5.97729677,32.0453587 5,36.8438986 5,41.9587514 C5,47.0736042 5.97729677,51.8721441 7.93191964,56.3545151 C9.88654251,60.836886 12.5293732,64.7554645 15.8604911,68.1103679 C19.1916089,71.4652713 23.100796,74.1189051 27.5881696,76.0713489 C32.0755433,78.0237927 36.8794387,79 42,79 Z M59.4587156,26.8205128 C60.0091771,26.2735015 60.6421983,26 61.3577982,26 C62.0733981,26 62.7064193,26.2735015 63.2568807,26.8205128 C63.7522961,27.312823 64,27.9282014 64,28.6666667 C64,29.4051319 63.7522961,30.0205104 63.2568807,30.5128205 L36.9174312,56.8512821 C36.862385,56.9059832 36.8073397,56.9606835 36.7522936,57.0153846 C36.6972474,57.0700857 36.6422021,57.1247861 36.587156,57.1794872 C36.0917406,57.7264985 35.4724808,58 34.7293578,58 C33.9862348,58 33.366975,57.7264985 32.8715596,57.1794872 L19.7431193,44.2153846 C19.2477039,43.7230745 19,43.107696 19,42.3692308 C19,41.6307655 19.2477039,41.0153871 19.7431193,40.5230769 C20.2935807,39.9760656 20.9266019,39.7025641 21.6422018,39.7025641 C22.3578017,39.7025641 22.9908229,39.9760656 23.5412844,40.5230769 L34.6880734,51.6 L59.4587156,26.8205128 Z" id="check---simple-line-icons-copy" fill="#000000"></path>
    </g>
</svg>