<svg width="144" height="169" viewBox="0 0 144 169" fill="none" xmlns="http://www.w3.org/2000/svg">
<path d="M93.4968 168.046C93.4006 167.885 93.3043 165.479 93.2401 162.655C93.1439 158.131 93.0797 157.489 92.5342 157.104C92.2134 156.88 91.7642 156.174 91.5075 155.596C91.0262 154.441 91.2829 153.254 92.2455 152.195C92.7268 151.682 92.7268 151.554 92.2455 151.04C91.9888 150.751 91.6037 150.11 91.4112 149.596C91.2187 149.115 90.7374 148.602 90.3524 148.441C87.978 147.511 87.2722 144.719 88.9727 142.954C89.4861 142.441 90.0636 141.992 90.2561 141.992C90.4487 141.992 91.2187 141.414 91.9567 140.741L93.3043 139.457L93.2401 132.302L93.1439 125.147L92.3417 125.051C90.9299 124.89 87.4326 123.639 85.9245 122.805C79.0903 118.922 74.9512 112.377 74.4699 104.708L74.2774 101.564H68.919H63.5607L63.1756 102.943C61.8922 107.243 58.1702 111.607 54.1595 113.532C51.1755 114.944 49.1541 115.361 45.4321 115.361C37.4428 115.361 31.9882 111.542 29.6138 104.195C29.2288 102.943 28.9079 102.462 28.3304 102.334C27.9132 102.237 27.2715 101.82 26.8865 101.403C26.2769 100.729 26.1806 100.248 26.1164 97.6492L26.0844 94.6652L27.1753 94.5048C28.202 94.3444 28.3304 94.216 28.8758 92.4192C29.7101 89.9165 30.8651 88.216 32.7903 86.7721C35.4213 84.7828 37.3465 84.3977 44.5337 84.3977C50.1167 84.3977 51.0793 84.494 53.3574 85.1357C56.8547 86.1625 58.6836 87.2213 60.8655 89.5315C62.2772 91.0716 62.8548 91.97 63.4002 93.6385C63.7853 94.8257 64.1061 96.0128 64.1061 96.2695C64.1061 96.6866 64.9725 96.7508 69.8174 96.7187H75.4966L76.8763 93.831C79.3469 88.6972 84.1598 84.6223 89.9353 82.7293C93.2401 81.6704 98.406 81.5421 101.647 82.4726C108.673 84.4298 114.577 89.9807 116.92 96.815C117.786 99.2535 117.85 99.8631 117.818 103.81C117.818 107.724 117.722 108.366 116.92 110.484C114.353 117.286 109.219 122.291 102.705 124.409L100.363 125.147V132.27C100.363 139.136 100.395 139.425 100.973 139.425C101.326 139.425 102.128 139.906 102.738 140.516C104.181 141.831 104.31 143.372 103.123 144.783L102.353 145.682L103.123 146.644C104.149 147.928 104.149 149.757 103.155 150.783L102.417 151.521L103.155 152.388C104.149 153.575 104.149 155.404 103.155 156.495L102.417 157.297L103.155 158.163C104.599 159.864 103.796 162.366 101.486 163.201C100.395 163.618 100.395 163.618 100.299 165.864L100.203 168.142L96.93 168.238C95.1332 168.27 93.5931 168.206 93.4968 168.046ZM101.582 160.794C102 160.377 102.032 160.153 101.775 159.703C101.486 159.254 100.909 159.158 98.406 159.158H95.3899V160.12C95.3899 160.826 95.5824 161.115 96.192 161.308C97.5396 161.693 101.005 161.372 101.582 160.794ZM100.78 155.821C101.839 155.404 102.192 154.281 101.518 153.575C100.716 152.805 95.1974 152.644 94.0744 153.382C93.0476 154.024 93.1439 155.147 94.2669 155.693C95.1974 156.174 99.6573 156.238 100.78 155.821ZM101.518 149.564C101.775 149.211 101.967 148.826 101.967 148.73C101.967 148.634 101.775 148.249 101.518 147.896C101.133 147.382 100.588 147.286 98.053 147.19C94.6198 147.094 93.4647 147.479 93.4647 148.73C93.4647 149.981 94.6198 150.366 98.053 150.27C100.588 150.174 101.133 150.078 101.518 149.564ZM92.3417 146.291C92.6947 145.874 92.6305 145.65 91.7963 144.815C90.6733 143.692 90.0957 143.853 90.0957 145.233C90.0957 145.906 90.2882 146.259 90.8337 146.484C91.8284 146.869 91.8925 146.869 92.3417 146.291ZM101.454 143.725C102.93 142.249 101.422 141.35 97.4755 141.35C93.5289 141.35 92.0209 142.249 93.4968 143.725C93.8818 144.142 94.7482 144.238 97.4755 144.238C100.203 144.238 101.069 144.142 101.454 143.725ZM100.684 120.655C108.224 118.665 113.262 112.441 113.743 104.612C114.064 99.446 112.331 94.8898 108.738 91.2641C103.123 85.6812 95.5503 84.4298 88.331 87.863C82.8764 90.4941 79.1223 96.0449 78.641 102.237C77.9993 110.676 83.7106 118.73 91.7642 120.687C94.0744 121.232 98.5343 121.232 100.684 120.655ZM49.6354 111.992C55.4109 110.612 59.1328 106.73 60.7692 100.312C61.9564 95.5957 59.9029 91.1358 55.6355 89.1785C52.3948 87.7026 49.9242 87.3176 44.0525 87.3176C39.3037 87.3496 38.3412 87.4459 36.6727 88.0234C32.7261 89.4352 31.1218 92.5155 31.539 97.7776C32.1807 106.056 35.3893 110.676 41.3893 111.992C44.0845 112.569 47.1327 112.569 49.6354 111.992Z" fill="white"/>
<path d="M54.0953 83.4352C50.2771 81.4458 46.9081 80.6758 41.646 80.4833C38.1165 80.3549 36.416 80.4512 34.5871 80.8362C33.1432 81.125 32.0844 81.2212 31.9239 81.0608C31.2181 80.3549 37.7957 77.9164 40.8759 77.6918C41.8064 77.6276 42.7048 77.4672 42.8652 77.3709C43.0577 77.2747 44.2449 77.1463 45.5284 77.1142C47.6139 77.0501 48.1273 77.1784 49.892 78.0447C50.983 78.5902 51.8814 78.9431 51.8493 78.8469C51.7851 78.141 52.0418 78.1731 53.2931 78.911C54.2236 79.4244 54.8012 79.6169 55.0258 79.3923C55.4429 78.9752 58.3627 82.8897 58.2665 83.756C58.106 84.8148 56.5338 84.6865 54.0953 83.4352Z" fill="white"/>
<path d="M81.7534 83.756C81.2401 83.1464 81.4326 82.6972 83.0689 80.5474C83.9353 79.3923 84.5449 78.8789 84.7374 79.0715C84.9299 79.264 85.4754 79.1035 86.2775 78.5581C87.3364 77.8522 88.4273 77.7559 88.0423 78.4297C87.946 78.5581 88.8123 78.2051 89.9353 77.6276C91.7642 76.6971 92.1813 76.6008 94.3311 76.6971C98.0851 76.8896 101.037 77.3709 103.764 78.3335C108.641 80.0019 108.93 80.9645 104.374 80.2265C102.77 79.9699 100.556 79.7453 99.4007 79.7453C95.0691 79.7453 89.2615 81.0929 85.4433 83.018C83.1973 84.141 82.2347 84.3335 81.7534 83.756Z" fill="white"/>
<path d="M59.6141 75.7345C48.384 74.3549 35.0363 70.8575 23.8383 66.4296C18.5442 64.3441 8.95047 59.6274 5.90231 57.606C4.52262 56.6755 2.59747 55.1354 1.63489 54.1728C-0.418607 52.1193 -0.514865 51.3172 1.21777 50.4829C2.59747 49.8091 10.7152 48.7824 18.3837 48.269L24.1913 47.9161L26.5015 49.392C41.1968 58.9215 75.9458 61.9055 100.524 55.7771C106.973 54.1728 115.668 50.9322 118.556 49.0391C119.23 48.5899 120.192 48.5578 125.968 48.7182C132.577 48.9428 139.636 49.6166 141.722 50.1942C143.134 50.6113 144 51.4455 144 52.3439C144 53.4669 141.08 56.4188 137.807 58.6007C126 66.4938 105.497 72.9752 84.6411 75.4458C78.5127 76.1517 64.3628 76.3121 59.6141 75.7345Z" fill="white"/>
<path d="M59.2933 53.2424C48.6407 52.2156 38.3412 49.6808 31.0577 46.3118C27.4961 44.6754 27.2394 44.4187 27.432 42.7503C27.9774 37.8732 30.9935 25.1351 33.047 18.9746C36.8973 7.42371 41.9027 0.942362 47.4215 0.268558C49.8279 -0.0202152 51.5926 0.814018 54.1595 3.3488C57.3039 6.49322 58.2665 8.22586 61.058 15.8302C62.2452 19.0067 63.2398 20.7073 64.8441 22.3437C68.7265 26.226 74.3095 26.1619 77.8389 22.1511C79.0903 20.7073 79.8924 19.2634 83.2935 12.012C85.5074 7.26328 87.1759 4.76058 89.3577 2.70709C91.5717 0.621503 92.7268 0.108128 95.0369 0.0760425C98.3418 0.0439566 101.101 1.61617 103.861 5.11353C108.16 10.504 111.914 19.488 114.962 31.6165C116.085 36.0764 117.369 42.8465 117.369 44.2583C117.369 44.3867 115.893 45.1888 114.064 46.0551C106.139 49.7771 95.2936 52.4081 83.5181 53.4028C78.256 53.8841 64.5874 53.7878 59.2933 53.2424Z" fill="white"/>
<path fill-rule="evenodd" clip-rule="evenodd" d="M45.5 104C47.9852 104 50 101.985 50 99.5C50 97.0147 47.9852 95 45.5 95C43.0148 95 41 97.0147 41 99.5C41 101.985 43.0148 104 45.5 104ZM47.5 99C48.3284 99 49 98.3284 49 97.5C49 96.6716 48.3284 96 47.5 96C46.6716 96 46 96.6716 46 97.5C46 98.3284 46.6716 99 47.5 99Z" fill="white"/>
<path fill-rule="evenodd" clip-rule="evenodd" d="M96.5 112C101.194 112 105 108.194 105 103.5C105 98.8056 101.194 95 96.5 95C91.8056 95 88 98.8056 88 103.5C88 108.194 91.8056 112 96.5 112ZM100.278 102.556C101.843 102.556 103.111 101.287 103.111 99.7222C103.111 98.1574 101.843 96.8889 100.278 96.8889C98.713 96.8889 97.4444 98.1574 97.4444 99.7222C97.4444 101.287 98.713 102.556 100.278 102.556Z" fill="white"/>
<path d="M69.3041 23.6271C67.3147 22.9212 64.6837 20.5468 63.5607 18.3971C63.1757 17.627 62.1168 15.0922 61.2505 12.7499C59.2612 7.48785 57.8815 5.11349 55.09 2.35411C53.8708 1.16693 53.0365 0.108095 53.229 0.0118373C53.3895 -0.116506 56.5339 0.813985 60.1917 2.06533C68.0848 4.76055 70.2667 5.30601 73.2186 5.30601C76.1063 5.30601 78.7052 4.63221 83.9673 2.54662C86.3096 1.58405 88.3631 0.910242 88.5556 1.0065C88.716 1.10276 88.2027 1.87282 87.4326 2.67497C85.6037 4.66429 83.7427 7.84079 81.24 13.3275C80.117 15.7981 78.8336 18.3971 78.3844 19.1029C75.7213 23.3383 72.7373 24.8142 69.3041 23.6271Z" fill="white"/>
</svg>
