<svg width="48" height="47" viewBox="0 0 48 47" fill="none" xmlns="http://www.w3.org/2000/svg">
<path fill-rule="evenodd" clip-rule="evenodd" d="M12.7407 0C14.0499 0 15.1111 1.06125 15.1111 2.37037V6.41976H32.6914V2.37037C32.6914 1.06125 33.7526 0 35.0617 0C36.3708 0 37.4321 1.06125 37.4321 2.37037V6.41976H44.0494C46.2312 6.41976 48 8.18851 48 10.3704V42.7654C48 44.9473 46.2312 46.7161 44.0494 46.7161H3.95062C1.76875 46.7161 0 44.9473 0 42.7654V10.3704C0 8.1885 1.76875 6.41976 3.95062 6.41976H10.3704V2.37037C10.3704 1.06125 11.4316 0 12.7407 0ZM32.6914 9.28395V11.0617C32.6914 12.3708 33.7526 13.4321 35.0617 13.4321C36.3708 13.4321 37.4321 12.3708 37.4321 11.0617V9.28395H44.0494C44.6494 9.28395 45.1358 9.77036 45.1358 10.3704V16.8564H2.8642V10.3704C2.8642 9.77036 3.3506 9.28395 3.95062 9.28395H10.3704V11.0617C10.3704 12.3708 11.4316 13.4321 12.7407 13.4321C14.0499 13.4321 15.1111 12.3708 15.1111 11.0617V9.28395H32.6914ZM45.1358 19.7206H2.8642V42.7654C2.8642 43.3654 3.3506 43.8519 3.95062 43.8519H44.0494C44.6494 43.8519 45.1358 43.3654 45.1358 42.7654V19.7206Z" fill="black"/>
<path fill-rule="evenodd" clip-rule="evenodd" d="M11 32.3596L12.7376 30.6708L19.718 37.3113L17.9504 39L11 32.3596ZM38.2025 23L40 24.6887L25.0207 39L18.0103 32.3596L19.8378 30.6708L25.0207 35.6512L38.2025 23ZM32.9298 24.6887L25.0207 32.3023L23.2831 30.6136L31.1622 23L32.9298 24.6887Z" fill="black"/>
</svg>
