<?xml version="1.0" encoding="UTF-8"?>
<svg width="75px" height="84px" viewBox="0 0 75 84" version="1.1" xmlns="http://www.w3.org/2000/svg" xmlns:xlink="http://www.w3.org/1999/xlink">
    <!-- Generator: Sketch 50.2 (55047) - http://www.bohemiancoding.com/sketch -->
    <title>Combined Shape</title>
    <desc>Created with Sketch.</desc>
    <defs></defs>
    <g id="Page-1" stroke="none" stroke-width="1" fill="none" fill-rule="evenodd">
        <path d="M4,17.8284271 L4,72 L54,72 L54,4 L17.8284271,4 L18.5,4 L18.5,18.5 L4,18.5 L4,17.8284271 Z M6.32842712,15.5 L15.5,15.5 L15.5,6.32842712 L6.32842712,15.5 Z M60.2912232,7.00175208 L74.9965694,9.06845371 L64.4652597,84.0026158 L26.0098598,78.5980618 L53.1956387,78.5980618 L61.2426761,79.7289992 L70.7208548,12.2882533 L60.2912232,10.8224641 L60.2912232,7.00175208 Z M0,16.1715729 L16.1715729,0 L58,0 L58,76 L0,76 L0,16.1715729 Z M11,29 L11,26 L48,26 L48,29 L11,29 Z M11,38 L11,35 L48,35 L48,38 L11,38 Z M11,47 L11,44 L48,44 L48,47 L11,47 Z M11,56 L11,53 L48,53 L48,56 L11,56 Z" id="Combined-Shape" fill="#000000" fill-rule="nonzero"></path>
    </g>
</svg>