<svg width="154" height="135" viewBox="0 0 154 135" fill="none" xmlns="http://www.w3.org/2000/svg">
<path fill-rule="evenodd" clip-rule="evenodd" d="M53.4206 2C53.4206 1.17157 54.0921 0.5 54.9206 0.5H119.757C120.585 0.5 121.257 1.17157 121.257 2V77.2335H149.543L137.699 54.187C137.32 53.4501 137.61 52.5459 138.347 52.1672C139.084 51.7885 139.988 52.0789 140.367 52.8157L153.334 78.0479C153.443 78.26 153.5 78.495 153.5 78.7335V133C153.5 133.828 152.828 134.5 152 134.5H2C1.17157 134.5 0.5 133.828 0.5 133V78.7335C0.5 78.495 0.556862 78.26 0.665869 78.0479L13.6332 52.8157C14.0118 52.0789 14.9161 51.7885 15.6529 52.1672C16.3897 52.5459 16.6801 53.4501 16.3014 54.187L4.45737 77.2335H27.8364V25.1583C27.8364 24.3299 28.508 23.6583 29.3364 23.6583H94.1729C95.0013 23.6583 95.6729 24.3299 95.6729 25.1583V77.2335H102.136V19.7454H37.7477C36.9192 19.7454 36.2477 19.0738 36.2477 18.2454C36.2477 17.417 36.9192 16.7454 37.7477 16.7454H103.636C104.464 16.7454 105.136 17.417 105.136 18.2454V77.2335H109.846V11.7955H46.8598C46.0314 11.7955 45.3598 11.1239 45.3598 10.2955C45.3598 9.46709 46.0314 8.79552 46.8598 8.79552H111.346C112.174 8.79552 112.846 9.46709 112.846 10.2955V77.2335H118.257V3.5H54.9206C54.0921 3.5 53.4206 2.82843 53.4206 2ZM92.6729 77.2335V26.6583H30.8364V77.2335H92.6729ZM3.5 80.2335H150.5V131.5H3.5V80.2335ZM54.472 92.905C54.472 92.0766 55.1435 91.405 55.972 91.405H98.3785C99.2069 91.405 99.8785 92.0766 99.8785 92.905C99.8785 93.7334 99.2069 94.405 98.3785 94.405H55.972C55.1435 94.405 54.472 93.7334 54.472 92.905Z" fill="white"/>
</svg>
