<svg width="337" height="258" viewBox="0 0 337 258" fill="none" xmlns="http://www.w3.org/2000/svg">
<path fill-rule="evenodd" clip-rule="evenodd" d="M104.363 139.518C91.6747 124.738 84 105.509 84 84.5C84 37.8319 121.832 0 168.5 0C189.312 0 208.378 7.53164 223.102 20.0082L240 3L250 13L95 166.5L86 158L104.363 139.518ZM97 84.5C97 45.0116 129.012 13 168.5 13C185.745 13 201.554 19.098 213.905 29.2645L113.56 130.261C103.216 117.858 97 101.911 97 84.5Z" fill="#7F8081"/>
<path d="M231.847 51.3078C237.052 61.2199 240 72.5061 240 84.5C240 123.988 207.988 156 168.5 156C157.354 156 146 153 136 148L126.5 158C139 165.5 152.5 169 168.5 169C215.168 169 253 131.168 253 84.5C253 70.3504 247.5 51.3078 241 42.5L231.847 51.3078Z" fill="#7F8081"/>
<path d="M39.6328 235V206.562H48.9297C52.0156 206.562 54.3333 207.201 55.8828 208.477C57.4453 209.753 58.2266 211.641 58.2266 214.141C58.2266 215.469 57.849 216.647 57.0938 217.676C56.3385 218.691 55.3099 219.479 54.0078 220.039C55.5443 220.469 56.7552 221.289 57.6406 222.5C58.5391 223.698 58.9883 225.13 58.9883 226.797C58.9883 229.349 58.1615 231.354 56.5078 232.812C54.8542 234.271 52.5169 235 49.4961 235H39.6328ZM43.3828 221.699V231.934H49.5742C51.319 231.934 52.6927 231.484 53.6953 230.586C54.7109 229.674 55.2188 228.424 55.2188 226.836C55.2188 223.411 53.3568 221.699 49.6328 221.699H43.3828ZM43.3828 218.691H49.0469C50.6875 218.691 51.9961 218.281 52.9727 217.461C53.9622 216.641 54.457 215.527 54.457 214.121C54.457 212.559 54.0013 211.426 53.0898 210.723C52.1784 210.007 50.7917 209.648 48.9297 209.648H43.3828V218.691ZM81.3125 213.867V235H77.6797V216.855H70.4922L70.0625 224.766C69.8281 228.398 69.2161 230.996 68.2266 232.559C67.25 234.121 65.694 234.935 63.5586 235H62.1133V231.816L63.1484 231.738C64.3203 231.608 65.1602 230.931 65.668 229.707C66.1758 228.483 66.5013 226.217 66.6445 222.91L67.0352 213.867H81.3125ZM86.1562 224.238C86.1562 222.168 86.5599 220.306 87.3672 218.652C88.1875 216.999 89.3203 215.723 90.7656 214.824C92.224 213.926 93.8841 213.477 95.7461 213.477C98.6237 213.477 100.948 214.473 102.719 216.465C104.503 218.457 105.395 221.107 105.395 224.414V224.668C105.395 226.725 104.997 228.574 104.203 230.215C103.422 231.842 102.296 233.112 100.824 234.023C99.3659 234.935 97.6862 235.391 95.7852 235.391C92.9206 235.391 90.5964 234.395 88.8125 232.402C87.0417 230.41 86.1562 227.773 86.1562 224.492V224.238ZM89.7891 224.668C89.7891 227.012 90.3294 228.893 91.4102 230.312C92.5039 231.732 93.9622 232.441 95.7852 232.441C97.6211 232.441 99.0794 231.725 100.16 230.293C101.241 228.848 101.781 226.829 101.781 224.238C101.781 221.921 101.228 220.046 100.121 218.613C99.0273 217.168 97.569 216.445 95.7461 216.445C93.9622 216.445 92.5234 217.155 91.4297 218.574C90.3359 219.993 89.7891 222.025 89.7891 224.668ZM126.352 225.82H123.812V235H120.199V225.82H117.66L111.742 235H107.172L114.73 224.062L107.895 213.867H112.27L117.719 222.617H120.199V213.867H123.812V222.617H126.273L131.762 213.867H136.137L129.281 224.082L136.84 235H132.27L126.352 225.82ZM148.5 235.391C145.635 235.391 143.305 234.453 141.508 232.578C139.711 230.69 138.812 228.171 138.812 225.02V224.355C138.812 222.259 139.21 220.391 140.004 218.75C140.811 217.096 141.931 215.807 143.363 214.883C144.809 213.945 146.371 213.477 148.051 213.477C150.798 213.477 152.934 214.382 154.457 216.191C155.98 218.001 156.742 220.592 156.742 223.965V225.469H142.426C142.478 227.552 143.083 229.238 144.242 230.527C145.414 231.803 146.898 232.441 148.695 232.441C149.971 232.441 151.052 232.181 151.938 231.66C152.823 231.139 153.598 230.449 154.262 229.59L156.469 231.309C154.698 234.03 152.042 235.391 148.5 235.391ZM148.051 216.445C146.592 216.445 145.368 216.979 144.379 218.047C143.389 219.102 142.777 220.586 142.543 222.5H153.129V222.227C153.025 220.391 152.53 218.971 151.645 217.969C150.759 216.953 149.561 216.445 148.051 216.445ZM178.207 235H174.594V225.977H164.887V235H161.254V213.867H164.887V223.027H174.594V213.867H178.207V235ZM197.699 213.867H201.312V235H197.699V219.59L187.953 235H184.34V213.867H187.953V229.297L197.699 213.867ZM220.785 213.867H224.398V235H220.785V219.59L211.039 235H207.426V213.867H211.039V229.297L220.785 213.867ZM221.762 206.172C221.762 207.747 221.221 209.017 220.141 209.98C219.073 210.931 217.667 211.406 215.922 211.406C214.177 211.406 212.764 210.924 211.684 209.961C210.603 208.997 210.062 207.734 210.062 206.172H213.012C213.012 207.083 213.259 207.799 213.754 208.32C214.249 208.828 214.971 209.082 215.922 209.082C216.833 209.082 217.543 208.828 218.051 208.32C218.572 207.812 218.832 207.096 218.832 206.172H221.762ZM257.387 235H253.773V225.977H244.066V235H240.434V213.867H244.066V223.027H253.773V213.867H257.387V235ZM271.977 235.391C269.112 235.391 266.781 234.453 264.984 232.578C263.188 230.69 262.289 228.171 262.289 225.02V224.355C262.289 222.259 262.686 220.391 263.48 218.75C264.288 217.096 265.408 215.807 266.84 214.883C268.285 213.945 269.848 213.477 271.527 213.477C274.275 213.477 276.41 214.382 277.934 216.191C279.457 218.001 280.219 220.592 280.219 223.965V225.469H265.902C265.954 227.552 266.56 229.238 267.719 230.527C268.891 231.803 270.375 232.441 272.172 232.441C273.448 232.441 274.529 232.181 275.414 231.66C276.299 231.139 277.074 230.449 277.738 229.59L279.945 231.309C278.174 234.03 275.518 235.391 271.977 235.391ZM271.527 216.445C270.069 216.445 268.845 216.979 267.855 218.047C266.866 219.102 266.254 220.586 266.02 222.5H276.605V222.227C276.501 220.391 276.007 218.971 275.121 217.969C274.236 216.953 273.038 216.445 271.527 216.445ZM299.887 216.797H292.797V235H289.184V216.797H282.23V213.867H299.887V216.797Z" fill="#7F8081"/>
</svg>
