<?xml version="1.0" encoding="UTF-8"?>
<svg width="67px" height="73px" viewBox="0 0 67 73" version="1.1" xmlns="http://www.w3.org/2000/svg" xmlns:xlink="http://www.w3.org/1999/xlink">
    <!-- Generator: Sketch 51.3 (57544) - http://www.bohemiancoding.com/sketch -->
    <title>Combined Shape</title>
    <desc>Created with Sketch.</desc>
    <defs></defs>
    <g id="Page-1" stroke="none" stroke-width="1" fill="none" fill-rule="evenodd">
        <path d="M37.2442833,16.3445587 L6.1406124,16.3445587 C5.79420408,16.3445587 5.54677328,16.5053887 5.39831257,16.8270536 C5.24985186,17.1487185 5.29933802,17.4332639 5.54677254,17.6806984 L26.6280875,38.0197136 C27.1229565,38.5145826 27.3703873,39.1331596 27.3703873,39.8754631 L27.3703873,59.3237185 L31.3788064,63.6290575 L31.3788064,39.7270032 C31.3788064,38.9846996 31.6262372,38.3661226 32.1211062,37.8712536 L43.1165683,26.3238958 C44.5454631,27.4822957 46.171786,28.4066994 47.9372127,29.0387826 L36.7233651,40.8404529 L36.7233651,70.0128359 C36.7233651,71.2500085 36.1542743,72.0912732 35.0160755,72.5366553 C34.6696672,72.6356292 34.3480072,72.6851153 34.0510857,72.6851153 C33.2592953,72.6851153 32.6159752,72.4129414 32.1211062,71.8685855 L22.8423584,62.2929178 C22.2980025,61.7980488 22.0258286,61.1794718 22.0258286,60.4371682 L22.0258286,40.9889129 L1.76104344,21.4664275 C0.919766099,20.5756633 0.375418338,19.5240824 0.127983827,18.3116533 C-0.119450685,17.0992242 -0.00810682466,15.9115563 0.462018747,14.7486141 C0.932144319,13.5856719 1.68680826,12.6701779 2.72603321,12.0021048 C3.76525816,11.3340316 4.90343984,11 6.1406124,11 L37.1881684,11 C37.0642537,11.8152642 37,12.6501285 37,13.5 C37,14.4700127 37.0837041,15.4204753 37.2442833,16.3445587 Z M54,26 C46.8202983,26 41,20.1797017 41,13 C41,5.82029825 46.8202983,0 54,0 C61.1797017,0 67,5.82029825 67,13 C67,20.1797017 61.1797017,26 54,26 Z" id="Combined-Shape" fill="#000000"></path>
    </g>
</svg>