<?xml version="1.0" encoding="UTF-8"?>
<svg width="370px" height="466px" viewBox="0 0 370 466" version="1.1" xmlns="http://www.w3.org/2000/svg" xmlns:xlink="http://www.w3.org/1999/xlink">
    <!-- Generator: Sketch 50.2 (55047) - http://www.bohemiancoding.com/sketch -->
    <title>fingerprint</title>
    <desc>Created with Sketch.</desc>
    <defs></defs>
    <g id="Page-1" stroke="none" stroke-width="1" fill="none" fill-rule="evenodd">
        <g id="fingerprint" fill="#FFFFFF" fill-rule="nonzero">
            <path d="M198.833084,465.279921 C196.291175,464.359662 193.191888,461.799439 192.123868,459.7378 C191.636461,458.796835 190.330065,455.417335 189.220731,452.227739 C183.807252,436.662149 176.744914,428.178745 168.230507,427.013773 C161.780619,426.131231 150.063886,434.065592 136.583819,448.444312 C128.559809,457.003236 125.711957,458.419757 119.513022,456.935248 C115.73622,456.030735 111.429975,452.097314 110.499521,448.702069 C108.530953,441.518718 110.167647,438.363253 121.960617,426.605468 C134.879209,413.725456 144.014176,407.17961 154.505599,403.284844 C158.785647,401.695926 159.685941,401.5691 166.810459,401.55132 C174.003533,401.533572 174.817915,401.646359 179.486067,403.309764 C186.30807,405.740709 190.124214,408.120903 195.726465,413.439294 C203.16634,420.502167 208.986144,430.192201 213.491268,443.017918 C215.909596,449.902792 216.38516,452.685229 215.696409,455.92056 C214.128228,463.286952 205.916698,467.844467 198.833084,465.279921 Z M251.936314,449.064584 C248.538115,447.522507 238.611265,439.405905 231.988142,432.754108 C218.668835,419.377165 210.056624,404.992993 205.972635,389.302884 C201.772621,373.167044 203.869486,352.86888 211.110523,339.566738 C215.476345,331.546517 223.167625,329.141767 230.204678,333.59677 C236.055691,337.300927 237.565842,344.122136 234.126824,351.312955 C230.794446,358.28078 229.755124,363.111547 229.805643,371.39787 C229.840274,377.059403 230.136853,379.850492 231.074365,383.334546 C232.605514,389.024636 236.499599,397.164128 240.403564,402.834572 C244.209917,408.363318 253.806919,418.321507 260.534312,423.722931 C268.731038,430.304155 270.232167,432.712455 269.750634,438.509037 C269.037331,447.096053 259.739195,452.605409 251.936314,449.064584 Z M69.1577168,444.497057 C64.635811,443.34207 60.8084663,439.758545 59.6858125,435.628549 C58.7930417,432.344256 59.4267259,427.664853 61.1076286,425.129277 C61.9667531,423.833297 66.8902821,419.737036 73.6460948,414.697534 C123.97786,377.152394 168.852522,334.882875 193.526514,301.77661 C202.908284,289.188595 210.655136,275.668571 214.539197,265.104628 C220.015999,250.208744 219.539383,239.059107 212.829073,225.100128 C206.844186,212.650055 196.385061,205.705461 183.619122,205.705461 C172.378226,205.705461 161.24128,211.572076 153.798853,221.413951 C152.06796,223.702884 148.051432,230.95471 144.082002,238.957629 C124.041202,279.362871 105.907397,300.804591 66.5953985,330.57914 C53.3677116,340.597676 19.8472243,364.374515 17.6713919,365.282064 C14.5047979,366.602832 8.64991242,366.045056 5.78009764,364.149243 C-0.226018516,360.181491 -1.73445658,351.524316 2.57551031,345.757577 C3.30182669,344.785749 9.22749974,340.193526 15.7436645,335.552641 C56.428687,306.576281 71.6777495,294.542569 84.5737304,281.235803 C99.1437107,266.201716 108.136811,252.846039 120.973087,227.179019 C128.589938,211.948617 131.893272,206.705959 137.956948,200.224321 C151.132999,186.140077 171.547489,178.113344 189.171715,180.087286 C202.990372,181.635001 213.578592,186.594472 223.235131,196.042441 C233.973903,206.549267 240.689818,219.961643 243.420951,236.355643 C244.56791,243.240372 244.334682,252.470795 242.816926,260.262567 C238.768146,281.048106 223.266973,307.950557 199.201968,335.956859 C177.288627,361.459099 144.997469,391.575989 109.015976,420.070308 C96.1216264,430.281556 81.0962681,441.531997 78.2727443,443.089774 C75.67657,444.522087 71.6748013,445.139946 69.1577168,444.497057 Z M305.888138,417.175225 C297.876535,414.129756 289.70231,409.763115 283.961309,405.46191 C266.210354,392.162776 254.224044,369.379822 249.442737,339.850948 C246.568931,322.102585 247.446314,309.861566 253.9454,277.032885 C260.340622,244.728782 261.16858,228.816035 257.227852,213.947451 C252.86367,197.481348 241.516225,182.799509 224.742503,171.91643 C212.046122,163.678836 198.487435,159.662004 183.390948,159.665818 C168.221804,159.669914 155.010817,163.703151 141.86921,172.34297 C125.169739,183.321898 113.385234,197.960945 101.056201,223.042061 C97.5216344,230.232488 93.1080629,238.417633 91.2482616,241.23128 C78.3735374,260.709158 54.7741627,282.819629 27.0895141,301.342216 C18.7799702,306.901771 16.4299143,307.99485 12.7867494,307.99485 C2.15446216,307.99485 -3.97765905,295.090696 2.92513297,287.242536 C3.88710108,286.14882 7.52441981,283.369559 11.0080746,281.0664 C36.2377277,264.386242 58.1188625,244.240014 69.7077091,227.020953 C71.1805414,224.83256 73.705591,220.228418 75.3189094,216.789517 C85.8713824,194.296207 94.6841126,180.726347 107.019931,167.976183 C126.750828,147.582552 149.578798,136.386497 176.267254,134.013616 C201.610454,131.760329 229.108371,140.943347 250.385166,158.765564 C275.983462,180.207599 287.659381,208.306587 285.250895,242.672594 C284.491994,253.50136 283.136405,262.572274 279.477642,281.304401 C275.265921,302.867496 274.382346,309.055919 274.039927,319.388077 C273.774224,327.40767 273.906235,329.755417 274.951066,335.58785 C278.695694,356.490963 284.759935,370.426205 294.356892,380.181311 C299.691294,385.60356 305.237694,389.065379 314.860346,392.978517 C322.827941,396.218608 324.558383,397.402498 326.309549,400.811427 C328.901021,405.856162 328.013071,411.792667 324.097305,415.601629 C319.433933,420.137837 314.747282,420.542819 305.888138,417.175225 Z M29.8022201,412.379226 C27.0464401,411.098296 24.9659784,408.992213 23.2900151,405.786863 C22.1194253,403.548043 22.3607546,397.923343 23.7411918,395.271222 C25.2385845,392.394415 26.4823404,391.287693 35.5628969,384.751986 C80.4849843,352.419468 121.305676,313.992964 146.663499,280.167576 C156.653344,266.841838 163.291226,256.265299 169.657477,243.52972 C173.341064,236.16077 174.264,234.754051 176.372521,233.294625 C178.359877,231.919052 179.535447,231.562121 182.658922,231.385937 C185.17956,231.243757 187.178349,231.452579 188.470802,231.993125 C194.96802,234.710518 198.028175,241.936564 195.596004,248.818153 C194.34714,252.35166 188.191616,264.33698 184.327275,270.759308 C158.463045,313.744309 111.093599,361.717889 52.0198134,404.754213 C46.6652026,408.655164 41.215098,412.273821 39.9084603,412.795714 C36.6104115,414.113069 33.2328993,413.973874 29.8022201,412.379226 Z M334.360189,383.868625 C331.24678,382.319859 321.500502,372.694992 314.983243,364.733071 C306.910969,354.871446 300.154331,343.183005 296.985441,333.598404 C294.240642,325.296413 293.504926,320.344655 293.522829,310.293467 C293.542422,299.302147 293.90114,296.094343 298.354423,267.094074 C302.880457,237.620168 303.603597,231.059378 303.617445,219.347378 C303.630659,208.057004 302.921407,203.685898 299.651027,194.905615 C297.579396,189.343744 293.061978,179.945147 289.815602,174.442745 C280.524574,158.695178 265.264917,142.772314 250.512803,133.431812 C216.390993,111.827137 167.244571,108.853148 132.361527,126.282133 C121.861838,131.528208 112.450205,138.35389 102.828747,147.700476 C91.7130673,158.498579 83.4645141,169.397255 69.9742594,191.110543 C62.89605,202.503292 57.2325348,210.220513 50.2946656,217.926343 C39.1266622,230.33053 21.772892,243.558344 15.2170935,244.664015 C10.0751825,245.531221 3.82852534,242.141177 1.61853629,237.284112 C1.03240981,235.995932 0.564059073,233.653978 0.557073728,231.97631 C0.535201807,226.723109 2.815623,223.047044 7.9291825,220.092427 C13.0159352,217.153307 21.3054754,210.519394 26.960406,204.862216 C36.0132306,195.805792 40.9193441,189.181026 52.5345463,170.329259 C72.7461381,137.525302 94.8198734,116.010464 121.602975,103.009588 C139.551552,94.2971119 156.860243,90.1286207 178.198531,89.3795533 C215.661928,88.0644236 250.124562,99.1350819 277.844183,121.389344 C299.614765,138.867536 318.868307,167.440269 326.42507,193.48458 C329.010299,202.394483 329.376995,205.711259 329.347249,219.915789 C329.315353,235.054698 328.924616,238.817651 324.239244,269.08352 C318.807818,304.168637 318.189307,312.951227 320.516438,321.945933 C323.320227,332.783287 331.23913,345.01995 344.121272,358.421158 C351.709831,366.315532 353.005473,368.365731 353.005473,372.479449 C353.005473,382.102682 343.043141,388.18802 334.360189,383.868625 Z M344.899443,334.737664 C342.140797,333.908458 339.532242,331.954722 337.876966,329.477956 C335.50132,325.923251 335.426887,322.145986 337.532679,311.998708 C345.665726,272.807446 346.288105,235.522473 339.306989,205.705461 C337.947845,199.900405 336.965827,196.785638 334.427518,190.228443 C331.370183,182.330456 332.069319,177.578932 336.932846,173.201642 C343.414759,167.367844 353.07098,169.560873 357.255684,177.817148 C360.476552,184.171815 364.42571,197.82429 366.638137,210.252769 C371.490231,237.510003 371.077982,270.802509 365.480333,303.756718 C363.580757,314.939931 361.156965,325.943124 360.106165,328.153647 C357.575051,333.478305 350.664266,336.470451 344.899443,334.737664 Z M15.1859214,175.906867 C9.6306676,174.417879 6.15497781,169.996032 5.77857572,163.938654 C5.51478668,159.693559 6.4571384,157.78342 15.5985079,144.033627 C32.4656323,118.663323 52.5091794,95.4120801 68.4351004,82.7412722 C94.4281154,62.0610015 124.03999,49.9813808 159.408208,45.6304762 C169.248736,44.4199188 192.028028,43.9619739 201.373308,44.7868209 C239.770117,48.1758728 275.207569,62.85058 308.022582,88.9504694 C322.124025,100.166252 344.114715,123.307643 350.682671,133.84278 C354.361473,139.743721 353.604349,146.171883 348.725562,150.458913 C343.211774,155.303864 336.294979,155.150789 331.368133,150.074791 C329.958879,148.622851 326.627868,144.623112 323.965886,141.186468 C318.092556,133.603896 301.991728,117.325571 293.722255,110.609481 C258.703154,82.1684247 220.863773,68.652041 180.191445,70.0558154 C145.918719,71.2387176 119.05388,79.2432292 94.7808822,95.504329 C75.0881971,108.696957 56.9326251,128.556881 37.167863,158.525775 C27.3572446,173.401408 27.3229877,173.445314 24.4588505,174.81645 C20.9920872,176.476078 18.4325211,176.777067 15.1859214,175.906867 Z M30.4382647,87.8229319 C24.7366832,85.3365043 21.3888029,79.0370925 22.691941,73.2473452 C23.5143481,69.5934516 26.8532518,65.1941631 34.9934933,57.0390026 C58.6022319,33.3869956 89.6679606,16.0490508 124.674577,6.98752337 C156.022398,-1.1269145 192.980117,-2.21809447 227.736655,3.94460786 C250.150162,7.91876119 275.156872,16.6736639 295.217602,27.5698285 C304.80586,32.7777691 318.505621,41.7413892 327.209802,48.5020089 C334.558116,54.2095054 336.50238,57.0719775 336.480284,62.150661 C336.442464,70.8339395 327.535498,77.1236809 319.410653,74.2045334 C318.314574,73.8107135 314.112376,70.9949916 310.072478,67.9473573 C292.387667,54.6062833 275.176278,45.0800595 256.635943,38.3711366 C215.851061,23.6128826 167.018315,21.6486697 126.637891,33.1421819 C95.6899658,41.9509071 66.7517417,59.4580877 48.2118846,80.5887081 C44.7590191,84.5240765 42.2627357,86.8404687 40.7215125,87.5392864 C38.0099001,88.7687795 32.9285652,88.9089435 30.4382647,87.8229319 Z" id="path4138"></path>
        </g>
    </g>
</svg>