<svg width="338" height="138" viewBox="0 0 338 138" fill="none" xmlns="http://www.w3.org/2000/svg">
<path d="M115.6 133.369C116.9 123.869 124.6 113.869 135.6 107.469C138.2 105.969 140.3 104.369 140.3 103.969C140.3 103.469 139.5 102.369 138.4 101.469C135.4 98.6693 131.5 88.9693 130.4 80.8693C129 71.1693 127 46.3693 127 37.3693C126.9 32.0693 127.4 29.3693 129.1 26.1693C131.6 21.3693 135.7 17.8693 138.7 17.8693C140.5 17.8693 140.9 17.2693 141 14.2693C141.2 6.16934 149.5 0.769336 162.7 0.0693359C183.9 -0.930664 203.8 8.96934 212 24.6693C217 34.1693 217.5 37.7693 216.3 58.1693C214.8 84.6693 213 92.9693 207.3 100.069C205.6 102.069 204.3 103.969 204.3 104.169C204.3 104.369 207 106.269 210.2 108.269C221.1 114.969 229.3 126.469 229.3 135.169V137.869H172.2H115L115.6 133.369ZM201.8 115.869C207.3 114.669 212.1 113.369 212.5 112.969C213 112.569 210.8 110.769 207.8 108.969L202.3 105.569L196 106.969C187.7 108.869 157 108.869 148.7 106.969C142.7 105.669 142.4 105.669 137.9 108.369C135.4 109.869 133.1 111.369 132.8 111.869C132.3 112.769 146.3 116.369 155.8 117.869C165.4 119.369 190.4 118.269 201.8 115.869ZM183.3 83.1693C183.3 82.1693 174.5 81.8693 172.3 81.8693C170.1 81.8694 161.3 82.1693 161.3 83.1693C161.3 84.0693 166.3 85.2694 172.3 85.3694C178.3 85.4693 183.3 84.1693 183.3 83.1693ZM159 75.1693C166.9 71.5693 177.9 71.6693 186 75.3693C196 79.9693 201.7 78.8693 205.5 71.5693C207.3 68.1693 207.8 65.2693 208.1 56.2693L208.5 45.1693L203.4 41.9693C195.1 36.5693 185.6 33.1693 170.3 29.9693C155.5 26.8693 148 24.6693 145.6 22.7693C141.8 17.8693 142.8 19.3694 143.8 24.3694C144.8 29.3694 142.6 29.6693 140.6 33.7693L136.8 41.3693V54.3693C136.8 66.3693 137 67.6693 139.3 71.7693C143.6 79.2693 148.2 80.0693 159 75.1693Z" fill="white"/>
<path d="M7.44041 136.809C6.44041 135.209 8.04041 128.609 10.7404 123.509C14.1404 117.209 20.8404 111.009 30.8404 105.209C39.2404 100.309 43.9404 95.9093 43.9404 93.0093C43.8404 92.0093 41.9404 90.4093 39.1404 89.1093C34.8404 87.0093 34.4404 87.0093 33.5404 88.6093C31.3404 92.7093 22.9404 99.7093 17.8404 101.509C11.1404 104.009 2.94041 105.109 0.940415 103.809C-0.359585 102.909 -0.359585 102.609 1.24041 101.709C6.24041 98.7093 6.94041 96.9093 6.94041 85.9093C6.94041 74.2093 8.64041 68.8093 13.2404 65.1093C15.7404 63.1093 15.7404 63.0093 14.7404 56.0093C10.2404 27.1093 36.1404 1.70929 64.9404 6.60929C88.7404 10.7093 105.14 33.3093 101.24 56.5093C100.04 63.0093 100.14 63.1093 102.64 65.1093C107.24 68.8093 108.94 74.1093 108.94 86.1093C108.94 97.4093 109.44 98.6093 114.54 101.709C116.24 102.609 116.24 102.909 114.94 103.809C112.94 105.109 104.74 104.009 98.0404 101.509C92.9404 99.7093 84.5404 92.7093 82.3404 88.6093C81.4404 87.0093 81.0404 87.1093 76.6404 89.1093C73.7404 90.5093 71.9404 91.9093 71.9404 93.0093C71.9404 95.3093 77.0404 101.009 80.6404 102.809C97.6404 111.509 107.54 122.509 108.24 133.509L108.44 137.309L58.2404 137.609C25.8404 137.709 7.84041 137.509 7.44041 136.809ZM68.8404 123.309C75.8404 121.809 85.1404 117.709 89.8404 113.909L92.3404 112.009L87.6404 109.209C85.1404 107.609 80.9404 105.109 78.4404 103.609C73.6404 100.709 69.9404 95.7093 69.9404 92.1093C69.9404 90.4093 71.2404 89.3093 75.7404 87.3093C78.8404 85.9093 83.4404 82.8093 85.7404 80.5093C90.8404 75.6093 96.2404 68.1093 95.2404 67.5093C94.7404 67.3093 91.9404 66.5093 88.9404 65.8093C71.3404 61.7093 52.7404 49.6093 42.3404 35.6093L38.1404 29.8093L36.5404 37.2093C34.6404 45.6093 30.9404 52.1093 23.7404 59.4093L18.7404 64.6093L21.4404 69.6093C25.5404 77.1093 33.1404 84.2093 40.5404 87.5093C47.5404 90.5093 47.6404 90.9093 44.0404 97.3093C42.4404 100.209 38.8404 102.909 28.3404 109.109L23.5404 112.009L25.9404 113.909C30.5404 117.509 39.9404 121.909 46.2404 123.209C54.5404 125.109 60.4404 125.109 68.8404 123.309Z" fill="white"/>
<path fill-rule="evenodd" clip-rule="evenodd" d="M236.114 137.299C236.114 137.299 234.114 123.299 246.89 114.399L250.89 110.499L247.89 106.999C246.19 105.099 244.39 102.499 243.89 101.099C243.39 99.7989 242.99 86.3989 242.99 71.3989C242.99 42.0989 243.39 38.7989 248.69 28.3989C254.19 17.5989 266.59 8.89886 279.99 6.59886C303.19 2.59886 326.19 19.0989 329.99 42.2989C331.29 50.3989 331.29 95.2989 329.89 100.099C329.39 102.199 327.49 105.399 325.89 107.299L322.89 110.699L327.39 114.799C332.59 119.599 336.69 127.399 337.19 133.299L337.49 137.299H236.114ZM318.99 113.699C314.09 117.699 305.09 121.799 298.09 123.299C289.49 125.099 283.59 125.099 275.39 123.299C268.79 121.899 258.99 117.299 254.99 113.899L252.49 111.699L257.49 112.299C263.59 112.999 265.69 111.899 264.09 108.999C262.59 106.199 262.49 106.399 266.99 103.399C271.49 100.499 274.99 95.4989 274.99 92.1989C274.99 90.5989 273.39 89.2989 268.29 86.6989L261.49 83.2989L261.19 66.5989L260.99 49.9989L266.19 51.4989C274.69 53.7989 293.19 54.2989 302.69 52.3989C307.09 51.4989 311.19 50.7989 311.89 50.7989C312.69 50.7989 312.99 55.0989 312.79 66.9989L312.49 83.1989L306.49 86.3989C303.09 88.0989 299.79 89.6989 299.09 89.8989C296.79 90.6989 301.19 99.0989 305.59 102.399C307.79 103.899 309.89 105.499 310.29 105.899C310.79 106.299 310.59 107.499 309.79 108.699C307.89 111.799 310.19 112.999 316.49 112.299L321.49 111.699L318.99 113.699Z" fill="white"/>
</svg>
