<svg width="98" height="141" viewBox="0 0 98 141" fill="none" xmlns="http://www.w3.org/2000/svg">
<path fill-rule="evenodd" clip-rule="evenodd" d="M15.8885 2.18894C17.0053 0.844226 18.5448 0 20.4726 0C23.931 0 26.0661 1.94704 27.1391 4.22579C27.7441 5.51082 28.0304 6.91799 28.0961 8.20737H89.3562V17.2565H98V141H9.34247V131.74H0V8.20737H13.4657C13.5516 7.74689 13.6472 7.30017 13.7536 6.86954C14.1842 5.12762 14.8355 3.45672 15.8885 2.18894ZM12.9624 12.2074C12.7844 14.4787 12.7397 16.8937 12.7397 19.2565C12.7397 19.4143 12.7397 19.572 12.7396 19.7294C12.7384 23.8045 12.7372 27.7363 13.5541 30.6247C13.9932 32.1777 14.7248 33.6587 16.0139 34.7205C17.3366 35.8098 19.0012 36.2582 20.8999 36.1971C23.2333 36.122 24.8677 34.8576 25.9099 33.274C26.9035 31.7641 27.4164 29.9029 27.6956 28.2485C27.9801 26.5627 28.0506 24.9108 28.0532 23.6983C28.0545 23.0874 28.0385 22.5771 28.022 22.2158C28.0137 22.0349 28.0053 21.8908 27.9987 21.7894C27.9954 21.7387 27.9925 21.6986 27.9904 21.6699L27.9878 21.6355L27.987 21.6249L27.9867 21.6212L27.9866 21.6198C27.9865 21.6193 27.9865 21.6187 25.9932 21.7819C23.9998 21.945 23.9998 21.9446 23.9997 21.9442L23.9999 21.9459L24.0012 21.9639C24.0025 21.9815 24.0046 22.0101 24.0071 22.0489C24.0121 22.1266 24.0192 22.2451 24.0262 22.3988C24.0403 22.7064 24.0543 23.1521 24.0532 23.6898C24.0509 24.7744 23.9865 26.1894 23.7513 27.5829C23.5109 29.0078 23.1191 30.2383 22.5685 31.075C22.0664 31.838 21.5167 32.1752 20.7713 32.1992C19.5912 32.2372 18.9545 31.9604 18.5569 31.6329C18.1258 31.2778 17.7182 30.6505 17.4031 29.5362C16.7429 27.2017 16.7397 23.7574 16.7397 19.2565C16.7397 16.76 16.7937 14.3586 16.9753 12.2074H85.3562V127.74H4V12.2074H12.9624ZM17.5478 8.20737C17.5764 8.07943 17.6061 7.95341 17.6368 7.82939C18.0024 6.35011 18.4659 5.34627 18.9656 4.74462C19.4014 4.21991 19.8524 4 20.4726 4C22.1101 4 22.9829 4.78875 23.5202 5.92974C23.8529 6.63652 24.029 7.44888 24.0883 8.20737H17.5478ZM13.3425 131.74V137H94V21.2565H89.3562V131.74H13.3425ZM65.6986 54.7174H25.9932V50.7174H65.6986V54.7174ZM65.6986 66.0814H25.9932V62.0814H65.6986V66.0814ZM39.7945 79.3395H25.9932V75.3395H39.7945V79.3395Z" fill="white"/>
<path fill-rule="evenodd" clip-rule="evenodd" d="M53.1233 96.1007C53.5018 96.2436 53.7828 96.5123 53.9895 96.7932C54.6835 97.7366 54.8951 99.0878 54.9685 100.352C55.0312 101.432 54.9973 102.631 54.9656 103.755C54.9651 103.771 54.9646 103.788 54.9642 103.804C55.6371 103.482 56.3408 103.186 57.0399 103.006C57.3522 102.926 57.9556 102.791 58.3292 102.739C58.3211 102.74 58.3207 102.739 58.4408 102.711C58.518 102.693 58.6752 102.657 58.8417 102.648C58.927 102.644 59.0576 102.643 59.2053 102.675C59.3528 102.707 59.5794 102.785 59.777 102.987C60.2354 103.455 60.0766 104.032 60.0083 104.22C59.8355 104.697 59.6224 105.095 59.4068 105.442C59.6751 105.362 59.9431 105.286 60.2108 105.212C60.2437 105.184 60.2766 105.156 60.3097 105.129C60.9937 104.555 61.754 104.047 62.5916 103.776C62.7835 103.713 63.119 103.633 63.4853 103.741C63.7918 103.832 64.016 104.022 64.1627 104.247C64.3867 104.197 64.6099 104.147 64.8326 104.097C66.897 103.634 68.9121 103.182 70.9203 102.543C72.7471 101.962 74.1243 101.432 75.9155 100.641C76.1034 100.557 76.323 100.479 76.5162 100.41C76.5377 100.402 76.5589 100.395 76.5797 100.387C76.8036 100.307 77.0186 100.228 77.2288 100.135C77.3194 100.096 77.4053 100.055 77.4864 100.013C77.4861 100.003 77.4859 99.993 77.4859 99.9831C77.4859 99.4309 77.9336 98.9831 78.4859 98.9831C78.4816 98.9831 78.486 98.9828 78.583 98.9761C78.6467 98.9718 78.7617 98.9642 78.8774 98.9679C78.9357 98.9698 79.0223 98.9752 79.1188 98.9942C79.1971 99.0096 79.3853 99.0524 79.573 99.1903C79.8107 99.3649 80.0222 99.6823 79.9982 100.092C79.9796 100.409 79.8245 100.626 79.7581 100.71C79.2566 101.349 78.588 101.722 78.0346 101.966C77.7541 102.089 77.4807 102.189 77.255 102.27L77.2064 102.287C76.9907 102.364 76.8415 102.418 76.7237 102.47C74.8736 103.287 73.4289 103.844 71.5267 104.449C69.4292 105.117 67.3244 105.588 65.2689 106.049C65.0008 106.109 64.7336 106.169 64.4673 106.229C64.3546 106.254 64.242 106.28 64.1296 106.305C64.1281 106.31 64.1267 106.314 64.1252 106.318C63.4659 108.269 62.5239 109.948 61.6903 111.2C61.228 111.895 60.6404 112.366 59.9163 112.521C59.2198 112.67 58.5731 112.487 58.0617 112.257C57.5517 112.027 57.0653 111.698 56.6658 111.423C56.624 111.394 56.5832 111.366 56.5433 111.338C56.3907 111.233 56.2519 111.137 56.123 111.051C55.9722 111.027 55.8135 110.974 55.658 110.873C55.556 110.807 55.4724 110.733 55.4041 110.654C55.2665 110.605 55.1064 110.564 54.8898 110.509L54.8803 110.507C54.5749 110.43 54.1499 110.322 53.7222 110.086C53.5154 109.972 53.3329 109.793 53.2237 109.559C52.9387 110.327 52.658 110.984 52.4565 111.452C52.2947 111.827 52.083 112.252 51.8406 112.636C51.6136 112.996 51.2985 113.421 50.9025 113.695C50.6967 113.837 50.4002 113.987 50.0343 113.999C49.6355 114.013 49.2815 113.859 49.011 113.611C48.5523 113.19 48.3359 112.503 48.2052 111.799C47.8796 110.046 47.9819 107.927 48.2315 105.984C48.4832 104.025 48.8959 102.163 49.2389 100.886C49.5423 99.7561 50.0484 98.3371 50.6635 97.3621C50.9487 96.9101 51.3762 96.3557 51.9758 96.1173C52.3195 95.9806 52.721 95.9487 53.1233 96.1007ZM53.7924 107.845C54.6578 107.042 55.6925 106.683 56.4397 106.433C56.6986 105.864 57.0159 105.401 57.2856 105.014C56.5141 105.248 55.7486 105.64 54.8909 106.079C54.6477 106.203 54.3971 106.332 54.1368 106.461C54.0391 106.937 53.9206 107.402 53.7924 107.845ZM52.9913 100.898C52.9478 100.885 52.9032 100.874 52.8576 100.865C52.4826 100.789 52.1438 100.867 51.8893 100.97C51.6232 101.078 51.3793 101.242 51.167 101.417C51.1681 101.413 51.1693 101.409 51.1704 101.405C51.4537 100.35 51.8972 99.1549 52.355 98.4293C52.4144 98.3351 52.4675 98.2595 52.5137 98.199C52.7549 98.6665 52.9109 99.4174 52.9718 100.468C52.9801 100.609 52.9865 100.752 52.9913 100.898ZM52.336 97.9279C52.336 97.9279 52.3365 97.9282 52.3374 97.9291ZM50.0695 107.633C50.6781 107.65 51.2707 107.556 51.8391 107.399C51.825 107.447 51.8107 107.494 51.7962 107.542C51.4125 108.805 50.9348 109.93 50.6198 110.66C50.4976 110.944 50.3463 111.247 50.1861 111.509C50.1812 111.485 50.1764 111.46 50.1716 111.434C49.9697 110.347 49.96 109.019 50.0695 107.633ZM49.7616 112.052C49.7616 112.052 49.7625 112.051 49.7642 112.05C49.7625 112.051 49.7616 112.052 49.7616 112.052ZM50.809 105.584C51.2865 105.503 51.79 105.333 52.3363 105.097C52.3925 104.634 52.4149 104.181 52.3934 103.751C52.379 103.463 52.3524 103.238 52.3206 103.066C52.2745 103.11 52.2267 103.158 52.1778 103.21C51.9675 103.434 51.7755 103.69 51.6477 103.879C51.3652 104.297 51.096 104.899 50.809 105.584ZM52.6436 102.823C52.6436 102.823 52.6431 102.823 52.6423 102.823ZM58.2584 110.083C58.4812 110.226 58.6867 110.345 58.8829 110.433C59.2048 110.578 59.3901 110.588 59.4976 110.565C59.5775 110.548 59.766 110.482 60.0254 110.092C60.612 109.21 61.2473 108.113 61.7769 106.867C61.5803 106.917 61.384 106.968 61.188 107.02C60.7376 107.435 60.2813 107.913 59.8085 108.426C59.689 108.555 59.5551 108.706 59.4133 108.865C59.1329 109.181 58.8217 109.531 58.5304 109.822C58.4446 109.907 58.3538 109.995 58.2584 110.083Z" fill="white"/>
</svg>
