<svg width="99" height="110" viewBox="0 0 99 110" fill="none" xmlns="http://www.w3.org/2000/svg">
<path d="M5.23793 23.346V94.2828H70.7121V5.23793H23.346H24.2254V24.2254H5.23793V23.346ZM8.28697 20.297H20.297V8.28697L8.28697 20.297ZM78.9503 9.16868L98.2067 11.875L84.4162 110L34.0595 102.923H69.6588L80.1962 104.404L92.6078 16.0913L78.9503 14.1718V9.16868ZM0 21.1764L21.1764 0H75.95V99.5207H0V21.1764ZM14.4043 37.975V34.0466H62.8552V37.975H14.4043ZM14.4043 49.7604V45.8319H62.8552V49.7604H14.4043ZM14.4043 61.5457V57.6173H62.8552V61.5457H14.4043ZM14.4043 73.3311V69.4026H62.8552V73.3311H14.4043Z" fill="#FDFEFE"/>
</svg>
