<?xml version="1.0" encoding="UTF-8"?>
<svg width="52px" height="83px" viewBox="0 0 52 83" version="1.1" xmlns="http://www.w3.org/2000/svg" xmlns:xlink="http://www.w3.org/1999/xlink">
    <!-- Generator: Sketch 51.3 (57544) - http://www.bohemiancoding.com/sketch -->
    <title>microphone - simple-line-icons</title>
    <desc>Created with Sketch.</desc>
    <defs></defs>
    <g id="Page-1" stroke="none" stroke-width="1" fill="none" fill-rule="evenodd">
        <path d="M25.9199219,56.5 C22.2896954,56.5 19.2601033,55.3121864 16.8310547,52.9365234 C14.4020061,50.5608605 13.1875,47.5846533 13.1875,44.0078125 L13.1875,13.4980469 C13.1875,9.81443471 14.4286985,6.66472662 16.9111328,4.04882812 C19.3935671,1.43292963 22.3964668,0.125 25.9199219,0.125 L26.4804688,0.125 C29.9505382,0.125 32.8733605,1.41958341 35.2490234,4.00878906 C37.6246864,6.59799472 38.8125,9.76104902 38.8125,13.4980469 L38.8125,44.0078125 C38.8125,47.638039 37.6513788,50.6275924 35.3291016,52.9765625 C33.0068243,55.3255326 30.0573096,56.5 26.4804688,56.5 L25.9199219,56.5 Z M18.3125,13.4980469 L18.3125,44.0078125 C18.3125,46.1966255 19.0198497,47.9716729 20.4345703,49.3330078 C21.8492909,50.6943427 23.6777232,51.375 25.9199219,51.375 L26.4804688,51.375 C28.6692818,51.375 30.4176367,50.6943427 31.7255859,49.3330078 C33.0335352,47.9716729 33.6875,46.1966255 33.6875,44.0078125 L33.6875,13.4980469 C33.6875,11.1490768 33.0068427,9.18718235 31.6455078,7.61230469 C30.2841729,6.03742702 28.5625104,5.25 26.4804688,5.25 L25.9199219,5.25 C23.8378802,5.25 22.0494866,6.05077324 20.5546875,7.65234375 C19.0598884,9.25391426 18.3125,11.2024625 18.3125,13.4980469 Z M49.0625,28.3125 C49.7565139,28.3125 50.3570938,28.5660782 50.8642578,29.0732422 C51.3714218,29.5804062 51.625,30.1809861 51.625,30.875 L51.625,41.5253906 C51.625,47.2910445 50.957689,51.9755679 49.6230469,55.5791016 C48.2884048,59.1826352 46.5667423,61.9986878 44.4580078,64.0273438 C42.3492733,66.0559997 40.0136847,67.4440067 37.4511719,68.1914062 C34.8886591,68.9388058 32.3528771,69.3125 29.84375,69.3125 L28.5625,69.3125 L28.5625,77 L41.375,77 C42.0690139,77 42.6695938,77.2535782 43.1767578,77.7607422 C43.6839218,78.2679062 43.9375,78.8684861 43.9375,79.5625 C43.9375,80.2565139 43.6839218,80.8570938 43.1767578,81.3642578 C42.6695938,81.8714218 42.0690139,82.125 41.375,82.125 L10.625,82.125 C9.93098611,82.125 9.33040618,81.8714218 8.82324219,81.3642578 C8.31607819,80.8570938 8.0625,80.2565139 8.0625,79.5625 C8.0625,78.8684861 8.31607819,78.2679062 8.82324219,77.7607422 C9.33040618,77.2535782 9.93098611,77 10.625,77 L23.4375,77 L23.4375,69.3125 L22.2363281,69.3125 C18.6061016,69.3125 15.4297011,68.6985738 12.7070312,67.4707031 C9.98436139,66.2428324 7.70215765,64.4410926 5.86035156,62.0654297 C4.01854548,59.6897668 2.64388475,56.7802907 1.73632812,53.3369141 C0.828771504,49.8935375 0.375,45.9564024 0.375,41.5253906 L0.375,30.875 C0.375,30.1809861 0.628578193,29.5804062 1.13574219,29.0732422 C1.64290618,28.5660782 2.24348611,28.3125 2.9375,28.3125 C3.63151389,28.3125 4.23209382,28.5660782 4.73925781,29.0732422 C5.24642181,29.5804062 5.5,30.1809861 5.5,30.875 L5.5,41.5253906 C5.5,44.0879034 5.68684709,46.7171089 6.06054688,49.4130859 C6.43424666,52.109063 7.20832746,54.5514213 8.3828125,56.7402344 C9.55729754,58.9290474 11.2522676,60.717441 13.4677734,62.1054688 C15.6832793,63.4934965 18.6061016,64.1875 22.2363281,64.1875 L29.84375,64.1875 C32.6731912,64.1875 35.1288958,63.7203823 37.2109375,62.7861328 C39.2929792,61.8518833 41.0146416,60.4505302 42.3759766,58.5820312 C43.7373115,56.7135323 44.7649705,54.3512513 45.4589844,51.4951172 C46.1529983,48.6389831 46.5,45.3157742 46.5,41.5253906 L46.5,30.875 C46.5,30.1809861 46.7535782,29.5804062 47.2607422,29.0732422 C47.7679062,28.5660782 48.3684861,28.3125 49.0625,28.3125 Z" id="microphone---simple-line-icons" fill="#000000"></path>
    </g>
</svg>