<?xml version="1.0" encoding="UTF-8"?>
<svg width="89px" height="83px" viewBox="0 0 89 83" version="1.1" xmlns="http://www.w3.org/2000/svg" xmlns:xlink="http://www.w3.org/1999/xlink">
    <!-- Generator: Sketch 51.3 (57544) - http://www.bohemiancoding.com/sketch -->
    <title>Combined Shape</title>
    <desc>Created with Sketch.</desc>
    <defs></defs>
    <g id="Page-1" stroke="none" stroke-width="1" fill="none" fill-rule="evenodd">
        <path d="M47.095231,0.364426973 C38.3694329,6.15351157 32.6166632,16.0659688 32.6166632,27.3220574 C32.6166632,45.1761117 47.090234,59.6496825 64.9442883,59.6496825 C70.4870194,59.6496825 75.7039491,58.2547616 80.263173,55.7968243 C74.391658,71.450661 59.2893992,82.5918681 41.5849721,82.5918681 C18.7778575,82.5918681 0.289038083,64.1030486 0.289038083,41.295934 C0.289038083,18.4888194 18.7778575,0 41.5849721,0 C43.4533004,0 45.29265,0.124072306 47.095231,0.364426973 Z M64.7995668,37.3863401 L49.474945,32.9484344 L64.7995668,28.5105287 L69.2374725,13.1859069 L73.6753782,28.5105287 L89,32.9484344 L73.6753782,37.3863401 L69.2374725,52.7109619 L64.7995668,37.3863401 Z" id="Combined-Shape" fill="#000000" fill-rule="nonzero"></path>
    </g>
</svg>