<?xml version="1.0" encoding="UTF-8"?>
<svg width="68px" height="79px" viewBox="0 0 68 79" version="1.1" xmlns="http://www.w3.org/2000/svg" xmlns:xlink="http://www.w3.org/1999/xlink">
    <!-- Generator: Sketch 51.3 (57544) - http://www.bohemiancoding.com/sketch -->
    <title>Combined Shape</title>
    <desc>Created with Sketch.</desc>
    <defs></defs>
    <g id="Page-1" stroke="none" stroke-width="1" fill="none" fill-rule="evenodd">
        <path d="M4.20987654,4.20987654 L4.20987654,26.7901235 L27.1728395,26.7901235 L27.1728395,4.20987654 L4.20987654,4.20987654 Z M3.23678237,0 L28.1459337,0 C29.9335592,0 31.382716,1.43793231 31.382716,3.21171171 L31.382716,27.7882883 C31.382716,29.5620677 29.9335592,31 28.1459337,31 L3.23678237,31 C1.44915683,31 0,29.5620677 0,27.7882883 L0,3.21171171 C0,1.43793231 1.44915683,0 3.23678237,0 Z M35.2098765,8.03703704 L67.3580247,8.03703704 L67.3580247,13.3950617 L35.2098765,13.3950617 L35.2098765,8.03703704 Z M35.9753086,17.6049383 L57.4074074,17.6049383 L57.4074074,22.962963 L35.9753086,22.962963 L35.9753086,17.6049383 Z M22.1041733,8.80246914 L25.2592593,11.8882996 L14.3273517,22.5802469 L6.50617284,14.9307463 L9.66125882,11.8449159 L14.3273517,16.408586 L22.1041733,8.80246914 Z M3.23678237,48 L28.1459337,48 C29.9335592,48 31.382716,49.4379323 31.382716,51.2117117 L31.382716,75.7882883 C31.382716,77.5620677 29.9335592,79 28.1459337,79 L3.23678237,79 C1.44915683,79 0,77.5620677 0,75.7882883 L0,51.2117117 C0,49.4379323 1.44915683,48 3.23678237,48 Z M4.20987654,52.2098765 L4.20987654,74.7901235 L27.1728395,74.7901235 L27.1728395,52.2098765 L4.20987654,52.2098765 Z M35.2098765,56.037037 L67.3580247,56.037037 L67.3580247,61.3950617 L35.2098765,61.3950617 L35.2098765,56.037037 Z M35.9753086,65.6049383 L57.4074074,65.6049383 L57.4074074,70.962963 L35.9753086,70.962963 L35.9753086,65.6049383 Z M22.1041733,56.8024691 L25.2592593,59.8882996 L14.3273517,70.5802469 L6.50617284,62.9307463 L9.66125882,59.8449159 L14.3273517,64.408586 L22.1041733,56.8024691 Z" id="Combined-Shape" fill="#000000" fill-rule="nonzero"></path>
    </g>
</svg>