<?xml version="1.0" encoding="UTF-8"?>
<svg width="75px" height="84px" viewBox="0 0 75 84" version="1.1" xmlns="http://www.w3.org/2000/svg" xmlns:xlink="http://www.w3.org/1999/xlink">
    <!-- Generator: Sketch 50.2 (55047) - http://www.bohemiancoding.com/sketch -->
    <title>refresh - simple-line-icons</title>
    <desc>Created with Sketch.</desc>
    <defs></defs>
    <g id="Page-1" stroke="none" stroke-width="1" fill="none" fill-rule="evenodd">
        <path d="M36.2841797,73.0556641 L36.7705078,73.7851562 C36.932618,74.0013032 37.0271809,74.2309558 37.0541992,74.4741211 C37.0812176,74.7172864 37.0677086,74.946939 37.0136719,75.1630859 C36.9596351,75.3792329 36.8515633,75.5818675 36.6894531,75.7709961 C36.5273429,75.9601246 36.3382172,76.1357414 36.1220703,76.2978516 L35.3115234,76.703125 L23.234375,82.9443359 C22.8020812,83.1604829 22.3697938,83.2010098 21.9375,83.065918 C21.5052062,82.9308261 21.1539727,82.6471376 20.8837891,82.2148438 L20.640625,81.5664062 C20.3704414,81.1341124 20.3028965,80.6748071 20.4379883,80.1884766 C20.5730801,79.702146 20.8567687,79.3509125 21.2890625,79.1347656 L27.8544922,75.7304688 L27.6923828,75.7304688 C27.6383461,75.7304688 27.5843102,75.7034508 27.5302734,75.6494141 C25.0986207,75.05501 22.7750762,74.1904354 20.5595703,73.0556641 C18.3440644,71.9208928 16.2636816,70.5835038 14.3183594,69.043457 C12.3730371,67.5034103 10.6168698,65.7742609 9.04980469,63.855957 C7.48273956,61.9376532 6.10482365,59.8437613 4.91601562,57.5742188 C3.83528105,55.4667863 2.97070637,53.2918406 2.32226562,51.0493164 C1.67382488,48.8067922 1.25504652,46.5372836 1.06591797,44.2407227 C0.876789419,41.9441617 0.903807378,39.6341262 1.14697266,37.3105469 C1.39013793,34.9869675 1.88997018,32.690441 2.64648437,30.4208984 C3.34896185,28.1513558 4.28108143,26.0034281 5.44287109,23.9770508 C6.60466076,21.9506735 7.94204973,20.0459074 9.45507812,18.2626953 C10.9681065,16.4794833 12.64322,14.8584057 14.4804688,13.3994141 C16.3177175,11.9404224 18.3170465,10.6705783 20.4785156,9.58984375 C21.0729196,9.26562338 21.6943327,9.21158746 22.3427734,9.42773438 C22.9912142,9.64388129 23.4775374,10.0491507 23.8017578,10.6435547 C24.1259782,11.2919954 24.1800141,11.9404264 23.9638672,12.5888672 C23.7477203,13.2373079 23.3424509,13.7236312 22.7480469,14.0478516 C19.1275861,15.9391371 15.9799938,18.4247893 13.3051758,21.5048828 C10.6303577,24.5849763 8.67155569,28.070293 7.42871094,31.9609375 C6.18586618,35.851582 5.74006986,39.8097129 6.09130859,43.8354492 C6.44254733,47.8611855 7.53677467,51.6842267 9.37402344,55.3046875 C10.4007213,57.195973 11.5895115,58.9656493 12.9404297,60.6137695 C14.2913479,62.2618898 15.7908446,63.7478775 17.4389648,65.0717773 C19.0870851,66.3956772 20.8702704,67.5439404 22.7885742,68.5166016 C24.7068781,69.4892627 26.719716,70.2457655 28.8271484,70.7861328 C29.0432954,70.8401695 29.24593,70.8942055 29.4350586,70.9482422 C29.6241871,71.0022789 29.8268218,71.0563148 30.0429688,71.1103516 L25.2607422,63.6533203 C24.9905585,63.2210265 24.8689777,62.7347032 24.8959961,62.1943359 C24.9230145,61.6539687 25.1526671,61.2757172 25.5849609,61.0595703 L26.2333984,60.6542969 C26.719729,60.3841132 27.2060523,60.3165683 27.6923828,60.4516602 C28.1787134,60.586752 28.5569648,60.8704405 28.8271484,61.3027344 L36.2841797,72.9746094 L36.2841797,73.0556641 Z M70.0839844,26.2060547 C71.1647189,28.3134871 72.0292936,30.4884328 72.6777344,32.730957 C73.3261751,34.9734813 73.7449535,37.2429898 73.934082,39.5395508 C74.1232106,41.8361117 74.0961926,44.1461472 73.8530273,46.4697266 C73.6098621,48.7933059 73.1100298,51.0898324 72.3535156,53.359375 C71.6510382,55.6289176 70.7324275,57.7903543 69.5976562,59.84375 C68.462885,61.8971457 67.1525139,63.8019118 65.6665039,65.5581055 C64.1804939,67.3142991 62.5323984,68.9218677 60.722168,70.3808594 C58.9119376,71.839851 56.9531355,73.1096951 54.8457031,74.1904297 C54.6295562,74.2985031 54.4269215,74.379557 54.237793,74.4335938 C54.0486644,74.4876305 53.8460297,74.5146484 53.6298828,74.5146484 C53.197589,74.5146484 52.7788106,74.3930676 52.3735352,74.1499023 C51.9682597,73.9067371 51.6575532,73.5690126 51.4414063,73.1367188 C51.1171859,72.488278 51.06315,71.839847 51.2792969,71.1914062 C51.4954438,70.5429655 51.9007132,70.0566422 52.4951172,69.7324219 C56.115578,67.8411364 59.2226433,65.3554842 61.8164062,62.2753906 C64.4101692,59.1952971 66.3284443,55.7099804 67.5712891,51.8193359 C68.8141338,47.9286915 69.2734391,43.9840695 68.9492188,39.9853516 C68.6249984,35.9866337 67.5172621,32.1500835 65.6259766,28.4755859 C63.6266176,24.6389782 60.9788576,21.3698052 57.6826172,18.6679687 C54.3863767,15.9661323 50.6308804,14.0748752 46.4160156,12.9941406 C45.9296851,12.8320304 45.4163438,12.7104496 44.8759766,12.6293945 C44.3356093,12.5483394 43.8222681,12.4537766 43.3359375,12.3457031 L48.1181641,19.8027344 C48.3883477,20.2350282 48.4964195,20.7213515 48.4423828,21.2617187 C48.3883461,21.802086 48.1451845,22.1803375 47.7128906,22.3964844 L47.0644531,22.8017578 C46.6321593,23.0719415 46.172854,23.1394864 45.6865234,23.0043945 C45.2001929,22.8693027 44.8219415,22.5856141 44.5517578,22.1533203 L37.0947266,10.4814453 C37.0947266,10.4814453 37.0677086,10.4814453 37.0136719,10.4814453 L36.6083984,9.67089844 C36.4462883,9.45475152 36.3517254,9.22509887 36.324707,8.98193359 C36.2976887,8.73876832 36.3111976,8.50911566 36.3652344,8.29296875 C36.4192711,8.07682184 36.5273429,7.87418714 36.6894531,7.68505859 C36.8515633,7.49593004 37.040689,7.32031331 37.2568359,7.15820312 L38.0673828,6.75292969 L50.1445313,0.51171875 C50.5768251,0.295571836 51.0496394,0.255044897 51.5629883,0.390136719 C52.0763372,0.52522854 52.4680976,0.808917109 52.7382813,1.24121094 L52.9814453,1.88964844 C53.251629,2.32194227 53.2786469,2.78124757 53.0625,3.26757812 C52.8463531,3.75390868 52.5221376,4.13216011 52.0898438,4.40234375 L45.6054688,7.64453125 C45.9837258,7.69856798 46.3484683,7.76611288 46.699707,7.84716797 C47.0509458,7.92822306 47.3886703,8.02278592 47.7128906,8.13085937 C50.1445434,8.77930012 52.4680879,9.65738378 54.6835938,10.7651367 C56.8990996,11.8728897 58.9524645,13.1967696 60.84375,14.7368164 C62.7350355,16.2768632 64.4641849,18.0060125 66.03125,19.9243164 C67.5983151,21.8426203 68.9492131,23.9365121 70.0839844,26.2060547 Z" id="refresh---simple-line-icons" fill="#000000"></path>
    </g>
</svg>