<svg width="116" height="116" viewBox="0 0 116 116" fill="none" xmlns="http://www.w3.org/2000/svg">
<path d="M55.8931 21.0239C46.1514 21.2032 37.0708 22.94 31.4969 25.691C29.3962 26.7275 28.0013 27.7528 27.0322 28.9686C26.6736 29.4169 26.1975 30.3413 26.0798 30.8232C25.9734 31.277 25.9734 62.6415 26.0798 63.5996C26.8081 69.8859 30.0516 77.8475 34.4715 84.1899C39.3507 91.199 45.412 96.2919 52.3023 99.1886C53.9045 99.8609 56.487 100.701 57.837 100.993C57.9603 101.021 58.2628 100.97 58.8734 100.808C64.6209 99.3118 69.7467 96.5048 74.4635 92.2803C75.4382 91.4063 77.4381 89.3669 78.284 88.3808C82.082 83.9602 85.1519 78.856 87.3366 73.3204C88.401 70.6311 89.2581 67.7008 89.667 65.3364C90.0031 63.4427 89.9751 64.905 89.9919 47.3234C90.0087 31.3386 90.0087 31.2434 89.8967 30.8008C89.3477 28.6325 87.0005 26.6659 82.9223 24.9682C77.4269 22.6767 68.7495 21.1639 60.4307 21.0407C59.3999 21.0295 58.414 21.0071 58.2459 21.0015C58.0779 20.9959 57.0191 21.0071 55.8931 21.0239ZM61.1589 24.6041C69.6962 24.9066 77.0795 26.3017 82.3621 28.6045C84.306 29.4561 85.9586 30.5654 86.3507 31.2826C86.4459 31.4619 86.4515 32.0782 86.4683 46.567C86.4851 61.8515 86.4739 62.7591 86.2835 64.0702C85.628 68.4852 83.5609 73.976 80.7208 78.8392C77.9871 83.5175 74.6483 87.5291 70.8222 90.7171C68.6151 92.5605 65.7357 94.3758 63.2316 95.5075C62.6098 95.7877 61.6127 96.2079 61.5679 96.2079C61.5567 96.2079 61.5511 93.6866 61.5511 90.6051V85.0023H57.9939H54.4367V90.6051C54.4367 93.6866 54.4255 96.2079 54.4142 96.2079C54.3246 96.2079 52.5992 95.4347 51.7477 95.0145C45.0647 91.6976 39.0986 85.7026 34.7908 77.9708C33.2783 75.2646 32.0795 72.5472 31.1383 69.729C30.4437 67.656 30.0292 66.0032 29.7211 64.1318L29.5922 63.3474L29.581 47.4187C29.5642 31.7869 29.5642 31.4899 29.6706 31.2826C29.8219 30.9801 30.5221 30.3357 31.1383 29.9323C31.4296 29.7418 32.0795 29.372 32.5892 29.1143C38.8746 25.9375 49.8543 24.2007 61.1589 24.6041Z" fill="black"/>
<path d="M71.4154 37.049C67.8952 37.3899 64.9174 39.5341 62.4211 43.5218C62.1776 43.909 61.9894 44.2384 62.0005 44.2557C62.0115 44.2673 62.2827 44.0997 62.5982 43.8801C65.4875 41.8631 68.0668 40.7997 70.314 40.7015C72.3674 40.609 73.8342 41.2621 75.5168 43.019C76.3803 43.9263 76.8286 44.5274 77.7142 45.9722C78.4282 47.1338 78.6939 47.4401 79.2197 47.706C79.9891 48.099 80.8027 48.099 81.561 47.7002C82.5185 47.2032 83.061 46.2091 82.9945 45.0764C82.9503 44.3077 82.8396 44.065 82.0425 43.019C81.8322 42.7416 81.4614 42.2561 81.2234 41.944C78.4835 38.3551 75.146 36.6849 71.4154 37.049Z" fill="black"/>
<path d="M42.9694 37.0559C41.0318 37.2579 39.1288 38.0601 37.3879 39.4049C36.6764 39.959 35.4849 41.1768 34.7851 42.0656C34.4496 42.4927 34.0158 43.0352 33.8134 43.2776C33.1482 44.0798 32.9053 44.8244 33.0325 45.6439C33.2697 47.1849 34.8082 48.27 36.2773 47.941C36.8326 47.814 37.2953 47.5832 37.6134 47.2657C37.758 47.1214 38.1513 46.5789 38.481 46.0595C40.3319 43.1506 41.9572 41.6442 43.9584 40.9805C44.6872 40.7381 45.2945 40.6631 46.2315 40.7035C48.736 40.8074 51.1826 41.7943 54.8265 44.178L55 44.2934L54.8323 44.0048C53.9762 42.5331 52.4088 40.6689 51.1248 39.5954C48.817 37.6734 45.8729 36.7558 42.9694 37.0559Z" fill="black"/>
<path d="M72.6033 48.0504C70.5742 48.3048 68.5837 49.1209 67.3189 50.2338L67 50.5093L67.2969 50.7531C68.6881 51.8977 70.3433 52.6078 72.3229 52.9046C73.1532 53.0318 74.8468 53.0318 75.6881 52.9046C77.6512 52.6078 79.3888 51.85 80.7855 50.6842L81 50.504L80.5931 50.1649C79.2514 49.0467 77.3598 48.2889 75.3197 48.0451C74.7753 47.9815 73.1477 47.9868 72.6033 48.0504Z" fill="black"/>
<path d="M40.4837 48.076C38.4619 48.3351 36.5842 49.1229 35.2216 50.2861L35 50.4765L35.3323 50.7726C35.7589 51.1533 36.5177 51.6344 37.1935 51.9622C40.3563 53.4744 44.6103 53.3211 47.5738 51.5868C47.9837 51.3489 48.7813 50.7726 48.9475 50.5928C49.0416 50.4923 49.0361 50.4818 48.7037 50.1962C47.4519 49.1123 45.5243 48.3192 43.5191 48.0707C42.7492 47.9756 41.2481 47.9756 40.4837 48.076Z" fill="black"/>
<path d="M33.0057 64.1707C33.0848 64.2928 35.0902 67.456 37.4684 71.1963L41.7898 77.9945L48.0884 78H54.387L56.1664 76.2519L57.9458 74.5038L59.7252 76.2519L61.5046 78H67.8088H74.1074L78.5136 71.0853C83.4451 63.3327 83.0102 64.0153 82.9763 64.0153C82.965 64.0153 80.5585 65.9743 77.6324 68.3716L72.3111 72.728H68.7127H65.12L62.4367 70.092L59.7535 67.456H57.9458H56.1381L53.4549 70.092L50.7716 72.728H47.1846H43.5975L38.231 68.3328C34.1411 64.9809 32.904 63.9931 33.0057 64.1707Z" fill="black"/>
</svg>
