<?xml version="1.0" encoding="UTF-8"?>
<svg width="64px" height="51px" viewBox="0 0 64 51" version="1.1" xmlns="http://www.w3.org/2000/svg" xmlns:xlink="http://www.w3.org/1999/xlink">
    <!-- Generator: Sketch 51.3 (57544) - http://www.bohemiancoding.com/sketch -->
    <title>ion-ios-settings-strong - Ionicons</title>
    <desc>Created with Sketch.</desc>
    <defs></defs>
    <g id="Page-1" stroke="none" stroke-width="1" fill="none" fill-rule="evenodd">
        <path d="M0,42.734375 L40.3496094,42.734375 C41.300135,40.4531136 43.0585809,39.3125 45.625,39.3125 C48.1914191,39.3125 49.949865,40.4531136 50.9003906,42.734375 L63.875,42.734375 L63.875,47.296875 L50.9003906,47.296875 C49.949865,49.5781364 48.1914191,50.71875 45.625,50.71875 C43.0585809,50.71875 41.300135,49.5781364 40.3496094,47.296875 L0,47.296875 L0,42.734375 Z M0,23.34375 L12.9746094,23.34375 C13.925135,21.0624886 15.6835809,19.921875 18.25,19.921875 C20.8164191,19.921875 22.574865,21.0624886 23.5253906,23.34375 L63.875,23.34375 L63.875,27.90625 L23.5253906,27.90625 C22.574865,30.1875114 20.8164191,31.328125 18.25,31.328125 C15.6835809,31.328125 13.925135,30.1875114 12.9746094,27.90625 L0,27.90625 L0,23.34375 Z M0,3.953125 L40.3496094,3.953125 C41.300135,1.67186359 43.0585809,0.53125 45.625,0.53125 C48.1914191,0.53125 49.949865,1.67186359 50.9003906,3.953125 L63.875,3.953125 L63.875,8.515625 L50.9003906,8.515625 C49.949865,10.7968864 48.1914191,11.9375 45.625,11.9375 C43.0585809,11.9375 41.300135,10.7968864 40.3496094,8.515625 L0,8.515625 L0,3.953125 Z" id="ion-ios-settings-strong---Ionicons" fill="#000000"></path>
    </g>
</svg>