<?xml version="1.0" encoding="UTF-8"?>
<svg width="36px" height="84px" viewBox="0 0 36 84" version="1.1" xmlns="http://www.w3.org/2000/svg" xmlns:xlink="http://www.w3.org/1999/xlink">
    <!-- Generator: Sketch 50.2 (55047) - http://www.bohemiancoding.com/sketch -->
    <title>Group 8 Copy 12</title>
    <desc>Created with Sketch.</desc>
    <defs></defs>
    <g id="Page-1" stroke="none" stroke-width="1" fill="none" fill-rule="evenodd">
        <g id="Group-8-Copy-12" fill="#000000" fill-rule="nonzero">
            <path d="M18,5.12977099 C10.8991961,5.12977099 5.14285714,10.8714628 5.14285714,17.9541985 L5.14285714,66.0458015 C5.14285714,73.1285372 10.8991961,78.870229 18,78.870229 C25.1008039,78.870229 30.8571429,73.1285372 30.8571429,66.0458015 L30.8571429,17.9541985 C30.8571429,10.8714628 25.1008039,5.12977099 18,5.12977099 Z M18,0 C27.9411255,0 36,8.03836846 36,17.9541985 L36,66.0458015 C36,75.9616315 27.9411255,84 18,84 C8.0588745,84 0,75.9616315 0,66.0458015 L0,17.9541985 C0,8.03836846 8.0588745,0 18,0 Z" id="Rectangle-10-Copy-3"></path>
            <path d="M23.6046512,57.3770492 L23.6046512,34.0983607 C23.6046512,29.2092825 19.52836,25.2459016 14.5,25.2459016 C9.47164001,25.2459016 5.39534884,29.2092825 5.39534884,34.0983607 L5.39534884,57.3770492 L1.0658141e-13,57.3770492 L1.0658141e-13,34.0983607 C1.0658141e-13,26.3120511 6.49187113,20 14.5,20 C22.5081289,20 29,26.3120511 29,34.0983607 L29,57.3770492 C29,58.8256649 27.79221,60 26.3023256,60 C24.8124411,60 23.6046512,58.8256649 23.6046512,57.3770492 Z" id="Combined-Shape"></path>
        </g>
    </g>
</svg>