<svg width="87" height="83" viewBox="0 0 87 83" fill="none" xmlns="http://www.w3.org/2000/svg">
<path fill-rule="evenodd" clip-rule="evenodd" d="M43.5 7.9996L34.1084 26.4024C32.946 28.6802 30.7647 30.265 28.2393 30.6666L7.83501 33.9117L22.435 48.5304C24.242 50.3398 25.0752 52.9041 24.6768 55.4301L21.4578 75.8384L39.8726 66.4705C42.1519 65.311 44.8481 65.311 47.1273 66.4705L65.5422 75.8384L62.3232 55.4301C61.9248 52.9041 62.758 50.3398 64.565 48.5304L79.165 33.9117L58.7607 30.6666C56.2353 30.265 54.054 28.6802 52.8916 26.4024L43.5 7.9996ZM46.1721 2.23608C45.0587 0.0543239 41.9413 0.0543234 40.8279 2.23608L29.6549 24.1296C29.219 24.9838 28.401 25.5781 27.4539 25.7287L3.1793 29.5893C0.760267 29.9741 -0.203077 32.9389 1.52783 34.6721L18.8972 52.0637C19.5748 52.7422 19.8872 53.7038 19.7378 54.651L15.9083 78.9306C15.5267 81.3501 18.0487 83.1825 20.2319 82.0719L42.1397 70.927C42.9945 70.4922 44.0055 70.4922 44.8603 70.927L66.7681 82.0719C68.9513 83.1825 71.4733 81.3501 71.0917 78.9306L67.2622 54.6511C67.1128 53.7038 67.4252 52.7422 68.1028 52.0637L85.4722 34.6721C87.2031 32.9389 86.2397 29.9741 83.8207 29.5893L59.5461 25.7287C58.599 25.5781 57.781 24.9838 57.3451 24.1296L46.1721 2.23608Z" fill="black"/>
</svg>
