<svg width="118" height="118" viewBox="0 0 118 118" fill="none" xmlns="http://www.w3.org/2000/svg">
<rect width="118" height="118" fill="white"/>
<path d="M43.5 102V0C39 0 30.5 1 24.5 6C20.692 9.17332 16.5 18 16 29.5C13 29 12.009 29.9503 11.5 32.5C10.991 35.0497 12 37.8333 13 39C16 42.5 18.193 44.1053 18.5 44.5C22 49 23.5 55.1667 27 59.5C27 62 27 64 24.5 66.5C21 70 11.5 76 7 80.5C0.480798 87.0192 0 93.5 0 102H43.5Z" transform="translate(15 17)" fill="#FFD098"/>
<path d="M43.5 102V0C39 0 30.5 1 24.5 6C20.692 9.17332 16.5 18 16 29.5C13 29 12.009 29.9503 11.5 32.5C10.991 35.0497 12 37.8333 13 39C16 42.5 18.193 44.1053 18.5 44.5C22 49 23.5 55.1667 27 59.5C27 62 27 64 24.5 66.5C21 70 11.5 76 7 80.5C0.480798 87.0192 0 93.5 0 102H43.5Z" transform="translate(102 17) scale(-1 1)" fill="#F1BA85"/>
<path fill-rule="evenodd" clip-rule="evenodd" d="M0 0C0.833344 3.5 2.57358 10.4162 6 13.5C11 18 14.5 20.5 16.5 21C17.8333 19.5 22.6 16.5 27 16.5C31.4 16.5 36.1667 19.5 37.5 21C39.5 20.5 43 18 48 13.5C51.4264 10.4162 53.1667 3.5 54 0C54 15.5 47.5456 25.6059 45 29C42 33 39.5 35 36.5 37C33.5 39 30 40 27 40C24 40 20.5 39 17.5 37C14.5 35 12 33 9 29C6.45441 25.6059 0 15.5 0 0Z" transform="translate(31.5 47)" fill="#0A2F3D"/>
<path fill-rule="evenodd" clip-rule="evenodd" d="M19 0L19.5 19.5C21 25 26.7 31.5 37.5 31.5C48.3 31.5 54 25 55.5 19.5L56 0L63.5 6.5C63.5 7.78558 63.4273 9.42814 63.3464 11.2543C63.1128 16.5307 62.8114 23.3398 64 27.5C65.6 33.1 72 36.1667 75 37H37.5H0C3 36.1667 9.39999 33.1 11 27.5C12.1886 23.3398 11.8872 16.5307 11.6536 11.2543C11.5727 9.42814 11.5 7.78558 11.5 6.5L19 0Z" transform="translate(21 82)" fill="#7A917B"/>
<path d="M0 2.73659C0 2.25579 0.264187 1.81032 0.692541 1.59195C4.87034 -0.537758 7.41377 -0.52556 11.3562 1.59806C11.7563 1.81358 12 2.23656 12 2.69101V2.69101C12 3.68204 10.9111 4.2895 10.0139 3.86849C7.23632 2.56505 5.02843 2.59549 1.98298 3.95606C1.07253 4.36282 0 3.73378 0 2.73659V2.73659Z" transform="translate(52.5 68.5438)" fill="#FFD098"/>
</svg>
