<?xml version="1.0" encoding="UTF-8"?>
<svg width="54px" height="54px" viewBox="0 0 54 54" version="1.1" xmlns="http://www.w3.org/2000/svg" xmlns:xlink="http://www.w3.org/1999/xlink">
    <!-- Generator: Sketch 50.2 (55047) - http://www.bohemiancoding.com/sketch -->
    <title>user</title>
    <desc>Created with Sketch.</desc>
    <defs></defs>
    <g id="Page-1" stroke="none" stroke-width="1" fill="none" fill-rule="evenodd">
        <g id="user" fill="#000000" fill-rule="nonzero">
            <path d="M36.45,33.2999649 C41.6249825,30.1499299 44.9999299,24.5250175 44.9999299,18.0000351 C45.0000351,8.1 36.8999299,0 27,0 C17.1000701,0 8.99996493,8.1 8.99996493,18.0000351 C8.99996493,24.5250175 12.3749123,30.1500351 17.5498948,33.2999649 C8.54992987,36.6750175 1.79992987,44.55 0,54 L4.50003507,54 C6.75,43.6500351 15.9750877,35.9999649 27,35.9999649 C38.0249123,35.9999649 47.25,43.6499299 49.4999649,54 L54,54 C52.2000701,44.3249825 45.4500701,36.45 36.45,33.2999649 Z M13.5,18.0000351 C13.5,10.5750877 19.5750526,4.50003507 27,4.50003507 C34.4249474,4.50003507 40.5,10.5750877 40.5,18.0000351 C40.5,25.4249825 34.4249474,31.5000351 27,31.5000351 C19.5750526,31.5000351 13.5,25.4249825 13.5,18.0000351 Z" id="Shape"></path>
        </g>
    </g>
</svg>