<svg width="116" height="116" viewBox="0 0 116 116" fill="none" xmlns="http://www.w3.org/2000/svg">
<path d="M82.7366 27.2471C77.2592 24.837 69.6035 23.377 60.7513 23.0603C49.0296 22.6381 37.6449 24.4559 31.1277 27.7807C30.5991 28.0504 29.9253 28.4374 29.6233 28.6368C28.9843 29.059 28.2583 29.7333 28.1014 30.05C27.9911 30.2669 27.9911 30.5777 28.0085 46.9378L28.0201 63.6087L28.1537 64.4296C28.4732 66.3881 28.903 68.1179 29.6233 70.2876C30.5991 73.2371 31.8421 76.081 33.4104 78.9132C37.8772 87.0053 44.0633 93.2796 50.9929 96.751C51.8758 97.1908 53.6648 98 53.7578 98H61.1753C61.2218 98 62.2557 97.5602 62.9004 97.267C65.4969 96.0825 68.4824 94.1826 70.771 92.2535C74.7382 88.9169 78.2001 84.7184 81.0347 79.8221C83.9796 74.7323 86.123 68.9858 86.8026 64.3651C87.0001 62.993 87.0117 62.043 86.9943 46.0465C86.9769 30.8826 86.9711 30.2376 86.8723 30.05C86.4657 29.2994 84.7522 28.1384 82.7366 27.2471Z" fill="white"/>
<path d="M55.8931 21.0238C46.1514 21.2031 37.0708 22.9399 31.4969 25.6909C29.3962 26.7274 28.0013 27.7528 27.0322 28.9686C26.6736 29.4168 26.1975 30.3413 26.0798 30.8231C25.9734 31.2769 25.9734 62.6414 26.0798 63.5995C26.8081 69.8858 30.0516 77.8474 34.4715 84.1898C39.3507 91.1989 45.412 96.2918 52.3023 99.1885C53.9045 99.8608 56.487 100.701 57.837 100.993C57.9603 101.021 58.2628 100.97 58.8734 100.808C64.6209 99.3118 69.7467 96.5048 74.4635 92.2802C75.4382 91.4062 77.4381 89.3668 78.284 88.3807C82.082 83.9601 85.1519 78.8559 87.3366 73.3204C88.401 70.631 89.2581 67.7007 89.667 65.3364C90.0031 63.4426 89.9751 64.905 89.9919 47.3234C90.0087 31.3386 90.0087 31.2433 89.8967 30.8007C89.3477 28.6324 87.0005 26.6658 82.9223 24.9682C77.4269 22.6766 68.7495 21.1639 60.4307 21.0406C59.3999 21.0294 58.414 21.007 58.2459 21.0014C58.0779 20.9958 57.0191 21.007 55.8931 21.0238ZM61.1589 24.604C69.6962 24.9065 77.0795 26.3016 82.3621 28.6044C84.306 29.456 85.9586 30.5654 86.3507 31.2825C86.4459 31.4618 86.4515 32.0781 86.4683 46.567C86.4851 61.8514 86.4739 62.7591 86.2835 64.0701C85.628 68.4851 83.5609 73.9759 80.7208 78.8391C77.987 83.5175 74.6483 87.5291 70.8222 90.7171C68.6151 92.5604 65.7357 94.3757 63.2316 95.5075C62.6098 95.7876 61.6127 96.2078 61.5679 96.2078C61.5567 96.2078 61.5511 93.6865 61.5511 90.605V85.0022H57.9939H54.4367V90.605C54.4367 93.6865 54.4254 96.2078 54.4142 96.2078C54.3246 96.2078 52.5992 95.4346 51.7477 95.0144C45.0647 91.6976 39.0986 85.7025 34.7908 77.9707C33.2783 75.2645 32.0795 72.5472 31.1383 69.729C30.4437 67.6559 30.0292 66.0031 29.7211 64.1318L29.5922 63.3474L29.581 47.4186C29.5642 31.7868 29.5642 31.4898 29.6706 31.2825C29.8219 30.98 30.5221 30.3357 31.1383 29.9323C31.4296 29.7418 32.0795 29.372 32.5892 29.1142C38.8746 25.9375 49.8543 24.2006 61.1589 24.604Z" fill="black"/>
<path d="M71.4154 37.0489C67.8952 37.3899 64.9174 39.534 62.4211 43.5217C62.1776 43.9089 61.9894 44.2383 62.0005 44.2557C62.0115 44.2672 62.2827 44.0996 62.5982 43.88C65.4875 41.863 68.0668 40.7997 70.314 40.7014C72.3674 40.6089 73.8342 41.262 75.5168 43.0189C76.3803 43.9263 76.8286 44.5273 77.7142 45.9721C78.4282 47.1338 78.6939 47.4401 79.2197 47.7059C79.9891 48.0989 80.8027 48.0989 81.561 47.7001C82.5185 47.2031 83.061 46.2091 82.9945 45.0763C82.9503 44.3077 82.8396 44.065 82.0425 43.0189C81.8322 42.7415 81.4614 42.256 81.2234 41.944C78.4835 38.355 75.146 36.6848 71.4154 37.0489Z" fill="black"/>
<path d="M42.9694 37.0558C41.0318 37.2578 39.1288 38.0601 37.3879 39.4048C36.6764 39.9589 35.4849 41.1767 34.7851 42.0655C34.4496 42.4926 34.0158 43.0351 33.8134 43.2775C33.1482 44.0798 32.9053 44.8243 33.0325 45.6439C33.2697 47.1849 34.8082 48.2699 36.2773 47.9409C36.8326 47.814 37.2953 47.5831 37.6134 47.2657C37.758 47.1214 38.1513 46.5788 38.481 46.0594C40.3319 43.1506 41.9572 41.6442 43.9584 40.9805C44.6872 40.7381 45.2945 40.663 46.2315 40.7034C48.736 40.8073 51.1826 41.7942 54.8265 44.1779L55 44.2933L54.8323 44.0047C53.9762 42.533 52.4088 40.6688 51.1248 39.5953C48.817 37.6734 45.8729 36.7557 42.9694 37.0558Z" fill="black"/>
<path d="M72.6033 48.0504C70.5742 48.3047 68.5837 49.1208 67.3189 50.2337L67 50.5093L67.2969 50.753C68.6881 51.8977 70.3433 52.6078 72.3229 52.9045C73.1532 53.0317 74.8468 53.0317 75.6881 52.9045C77.6512 52.6078 79.3888 51.85 80.7855 50.6841L81 50.504L80.5931 50.1648C79.2514 49.0466 77.3598 48.2888 75.3197 48.0451C74.7753 47.9815 73.1477 47.9868 72.6033 48.0504Z" fill="black"/>
<path d="M40.4837 48.076C38.4619 48.335 36.5842 49.1228 35.2216 50.2861L35 50.4764L35.3323 50.7725C35.7589 51.1532 36.5177 51.6343 37.1935 51.9622C40.3563 53.4743 44.6103 53.321 47.5738 51.5868C47.9837 51.3488 48.7813 50.7725 48.9475 50.5927C49.0416 50.4923 49.0361 50.4817 48.7037 50.1962C47.4519 49.1123 45.5243 48.3192 43.5191 48.0707C42.7492 47.9755 41.2481 47.9755 40.4837 48.076Z" fill="black"/>
<path d="M33.0057 64.1706C33.0848 64.2927 35.0902 67.4559 37.4684 71.1963L41.7898 77.9944L48.0884 77.9999H54.387L56.1664 76.2518L57.9458 74.5038L59.7252 76.2518L61.5046 77.9999H67.8088H74.1074L78.5136 71.0853C83.4451 63.3326 83.0102 64.0152 82.9763 64.0152C82.965 64.0152 80.5585 65.9742 77.6324 68.3716L72.3111 72.7279H68.7127H65.12L62.4367 70.0919L59.7535 67.4559H57.9458H56.1381L53.4549 70.0919L50.7716 72.7279H47.1846H43.5975L38.231 68.3327C34.1411 64.9808 32.904 63.993 33.0057 64.1706Z" fill="black"/>
</svg>
