<svg width="116" height="116" viewBox="0 0 116 116" fill="none" xmlns="http://www.w3.org/2000/svg">
<path d="M92.4905 53.2612C92.4905 72.4697 77.036 88.0223 57.9952 88.0223C38.9544 88.0223 23.5 72.4697 23.5 53.2612C23.5 34.0527 38.9544 18.5 57.9952 18.5C77.036 18.5 92.4905 34.0527 92.4905 53.2612Z" fill="url(#paint0_linear)" stroke="black" stroke-width="3"/>
<line x1="2.5" y1="-2.5" x2="29.2127" y2="-2.5" transform="matrix(0.704499 0.709705 -0.704499 0.709705 84.6584 85.4933)" stroke="black" stroke-width="5" stroke-linecap="round" stroke-linejoin="round"/>
<path d="M55.7663 31.9184C55.2291 32.068 54.3012 32.2673 53.7151 32.4169C53.0803 32.5166 51.8593 33.3141 50.9314 34.1615C46.4383 38.149 46.3406 47.2707 50.6872 54.2988C51.7616 55.9935 52.1035 57.0403 51.8593 57.9375C51.0779 61.1774 48.3918 63.0217 44.3871 63.0217C41.9452 63.0217 39.5033 64.3675 37.2568 66.9096C36.3777 67.9563 36.3777 68.0062 37.9405 70.4984C42.2382 77.3272 49.9058 81.4643 58.2082 81.4643C64.899 81.4643 70.8573 78.7228 75.7899 73.4393C80.4295 68.4049 80.4783 67.3083 76.0829 64.4173C74.5201 63.4204 73.2503 63.0217 71.7852 63.0217C69.0503 63.0217 66.706 62.0248 65.3874 60.2802C64.1665 58.735 63.9711 55.9437 64.9967 55.0963C66.413 53.8502 68.3665 48.3673 68.6107 44.8283C68.9526 39.0961 67.2433 34.8593 63.8246 33.0649C62.0664 32.1178 57.5245 31.4698 55.7663 31.9184Z" fill="#215A6F"/>
<path d="M33.9984 46.8176C35.3315 32.716 48.6631 23.315 61.3281 25.3295C49.3297 27.344 39.9976 34.7305 33.9984 46.8176Z" fill="white"/>
<path d="M79.3257 59.9762C78.3503 70.4204 68.5955 77.3833 59.3284 75.8912C68.1077 74.3992 74.9361 68.9284 79.3257 59.9762Z" fill="white"/>
<defs>
<linearGradient id="paint0_linear" x1="39" y1="24" x2="82.5" y2="84.5" gradientUnits="userSpaceOnUse">
<stop stop-color="#83DAFF"/>
<stop offset="1" stop-color="#FEFEFE"/>
</linearGradient>
</defs>
</svg>
