<?xml version="1.0" encoding="UTF-8"?>
<svg width="119px" height="118px" viewBox="0 0 119 118" version="1.1" xmlns="http://www.w3.org/2000/svg" xmlns:xlink="http://www.w3.org/1999/xlink">
    <!-- Generator: Sketch 50.2 (55047) - http://www.bohemiancoding.com/sketch -->
    <title>user1</title>
    <desc>Created with Sketch.</desc>
    <defs></defs>
    <g id="Page-1" stroke="none" stroke-width="1" fill="none" fill-rule="evenodd">
        <g id="user1">
            <rect id="Rectangle-path" fill-rule="nonzero" x="0" y="0" width="118" height="118"></rect>
            <path d="M58.5,119 L58.5,17 C54,17 45.5,18 39.5,23 C35.692,26.17332 31.5,35 31,46.5 C28,46 27.009,46.9503 26.5,49.5 C25.991,52.0497 27,54.8333 28,56 C31,59.5 33.193,61.1053 33.5,61.5 C37,66 38.5,72.1667 42,76.5 C42,79 42,81 39.5,83.5 C36,87 26.5,93 22,97.5 C15.480798,104.0192 15,110.5 15,119 L58.5,119 Z" id="Shape" fill="#FFD098" fill-rule="nonzero"></path>
            <path d="M102,119 L102,17 C97.5,17 89,18 83,23 C79.192,26.17332 75,35 74.5,46.5 C71.5,46 70.509,46.9503 70,49.5 C69.491,52.0497 70.5,54.8333 71.5,56 C74.5,59.5 76.693,61.1053 77,61.5 C80.5,66 82,72.1667 85.5,76.5 C85.5,79 85.5,81 83,83.5 C79.5,87 70,93 65.5,97.5 C58.980798,104.0192 58.5,110.5 58.5,119 L102,119 Z" id="Shape" fill="#F1BA85" fill-rule="nonzero" transform="translate(80.250000, 68.000000) scale(-1, 1) translate(-80.250000, -68.000000) "></path>
            <path d="M31.5,47 C32.333344,50.5 34.07358,57.4162 37.5,60.5 C42.5,65 46,67.5 48,68 C49.3333,66.5 54.1,63.5 58.5,63.5 C62.9,63.5 67.6667,66.5 69,68 C71,67.5 74.5,65 79.5,60.5 C82.9264,57.4162 84.6667,50.5 85.5,47 C85.5,62.5 79.0456,72.6059 76.5,76 C73.5,80 71,82 68,84 C65,86 61.5,87 58.5,87 C55.5,87 52,86 49,84 C46,82 43.5,80 40.5,76 C37.95441,72.6059 31.5,62.5 31.5,47 Z" id="Shape" fill="#0A2F3D"></path>
            <path d="M40,82 L40.5,101.5 C42,107 47.7,113.5 58.5,113.5 C69.3,113.5 75,107 76.5,101.5 L77,82 L84.5,88.5 C84.5,89.78558 84.4273,91.42814 84.3464,93.2543 C84.1128,98.5307 83.8114,105.3398 85,109.5 C86.6,115.1 93,118.1667 96,119 L58.5,119 L21,119 C24,118.1667 30.39999,115.1 32,109.5 C33.1886,105.3398 32.8872,98.5307 32.6536,93.2543 C32.5727,91.42814 32.5,89.78558 32.5,88.5 L40,82 Z" id="Shape" fill="#C53838"></path>
            <path d="M52.5,71.28039 C52.5,70.79959 52.764187,70.35412 53.192541,70.13575 C57.37034,68.006042 59.91377,68.01824 63.8562,70.14186 C64.2563,70.35738 64.5,70.78036 64.5,71.23481 C64.5,72.22584 63.4111,72.8333 62.5139,72.41229 C59.73632,71.10885 57.52843,71.13929 54.48298,72.49986 C53.57253,72.90662 52.5,72.27758 52.5,71.28039 Z" id="Shape" fill="#FFD098" fill-rule="nonzero"></path>
            <ellipse id="Oval" fill="#000000" fill-rule="nonzero" cx="46.5" cy="45.5" rx="8.5" ry="6.5"></ellipse>
            <ellipse id="Oval" fill="#000000" fill-rule="nonzero" cx="69.5" cy="45.5" rx="8.5" ry="6.5"></ellipse>
            <path d="M27.500007,29.904 C26.83334,32.404 26.500009,44.4 30.50001,48 C31.50001,47.6666 35.60741,36.004 36.40741,34.404 C37.2074,32.804 38.3333,39.3333 38.5,38.5 C39.6667,39.5 41.7074,32.904 42.9074,32.904 C44.4074,32.904 48,35.5 49,35.5 C50,35.5 50.9074,29.904 52.4074,27.904 C53.9074,25.904 50.5,37 53.5,35.5 C55.9,34.3 59.5,35.904 59.5,30.904 C63.0926,38.5 67.7,37.1 68.5,35.5 C69.5,33.5 76.9074,34.404 78.4074,36.404 C79.6074,38.004 84.2407,40.6667 85.4074,41 C86.5741,40.6667 83.4074,47.1 85.4074,45.5 C87.9074,43.5 89.4074,33.404 89.4074,30.904 C89.4074,28.404 88.5,29.904 87.5,27.904 C86.5,25.904 85.4074,25.404 85.4074,22.904 C85.4074,20.404 87.5,20.5 83.5,19 C79.5,17.5 78,18.5 80,15 C82,11.5 73.9074,10.90401 69.9074,8.404012 C65.9074,5.90401 61,11 59,9 C57,6.999999 57.9074,10.40401 54.4074,8.404012 C50.9074,6.40401 46.9074,13.90401 44.4074,11.90401 C41.9074,9.90401 36.90741,18.404 35.40741,17.40402 C34.20741,16.60402 29.00001,26.904 27.500007,29.904 Z" id="Shape" fill="#0A2F3D" fill-rule="nonzero"></path>
            <path d="M86.5,45.5 L77,47.5 L64,46 C58.5,42.155078 58,41.72787 53,46 L38.5,47 L30.5,45.5" id="Shape" stroke="#000000"></path>
            <path d="M68.2381,40.0206132 C64.47186,40.27126 63,45 63,45 C63,45 65.45826,42.88661 67,42 C69.41402,40.611775 73,41.88788 73,41.88788 C73,41.88788 72.00433,39.769967 68.2381,40.0206132 Z" id="Shape" fill="#FFFFFF" fill-rule="nonzero"></path>
            <path d="M45.2381,41.0206132 C41.47186,41.27126 40,46 40,46 C40,46 42.45826,43.88661 44,43 C46.41402,41.611775 50,42.88788 50,42.88788 C50,42.88788 49.00433,40.769967 45.2381,41.0206132 Z" id="Shape" fill="#FFFFFF" fill-rule="nonzero"></path>
        </g>
    </g>
</svg>