<svg width="21" height="17" viewBox="0 0 21 17" fill="none" xmlns="http://www.w3.org/2000/svg">
<path d="M0 11L1 13V15C1 15.5523 1.44771 16 2 16H19C19.5523 16 20 15.5523 20 15V13L21 11V15C21 16.1046 20.1046 17 19 17H2C0.89543 17 0 16.1046 0 15V11Z" fill="black"/>
<path fill-rule="evenodd" clip-rule="evenodd" d="M4 12C1.79086 12 0 10.2091 0 8V5C0 3.89543 0.895431 3 2 3H19C20.1046 3 21 3.89543 21 5V8C21 10.2091 19.2091 12 17 12H14V11H17C18.6569 11 20 9.65685 20 8V5C20 4.44772 19.5523 4 19 4H2C1.44771 4 1 4.44772 1 5V8C1 9.65685 2.34315 11 4 11H6V12H4Z" fill="black"/>
<path d="M13 0C13.5523 0 14 0.447715 14 1V2H13V1H7V2H6V1C6 0.447715 6.44772 0 7 0H13Z" fill="black"/>
<path fill-rule="evenodd" clip-rule="evenodd" d="M8 13H12V9H8V13ZM11 12V10H9V12H11Z" fill="black"/>
</svg>
