<svg width="20" height="19" viewBox="0 0 20 19" fill="none" xmlns="http://www.w3.org/2000/svg">
<path d="M12.0643 0.0603714C11.7946 0.13203 11.6399 0.21165 11.4178 0.398758C11.2354 0.550037 11.2275 0.554018 10.8983 0.554018C10.5612 0.554018 10.113 0.621695 10.113 0.669467C10.113 0.685391 10.1567 0.820746 10.2082 0.976006C10.2915 1.21885 10.3113 1.2507 10.3946 1.23875C10.4462 1.23477 10.6881 1.22283 10.926 1.21885C11.4099 1.20691 11.5368 1.16311 11.8104 0.928234C11.9017 0.852594 12.0405 0.761031 12.1237 0.725202C12.326 0.6416 13.0597 0.605771 13.3135 0.669467C13.7736 0.784917 14.4081 1.21885 14.7928 1.68065C15.348 2.3415 15.5503 3.03419 15.7446 4.91323C15.7882 5.35115 15.8715 5.93238 15.927 6.20707C16.05 6.81218 16.3395 7.69199 16.633 8.35682C16.7559 8.63151 16.8551 8.85842 16.8551 8.86241C16.8551 8.87037 16.046 8.87435 15.0545 8.87435H13.254L13.2025 9.14904C13.0835 9.82183 13.2302 10.2836 13.718 10.7574C14.3169 11.3426 15.1497 11.8044 17.1327 12.6563C18.3859 13.1938 18.6397 13.3331 18.8737 13.5958C19.1196 13.8745 19.3139 14.5035 19.3139 15.0091V15.2042H18.3224H17.331V15.5227V15.8411H18.6675H20L19.9762 15.232C19.9405 14.2885 19.7819 13.6914 19.4448 13.2495C19.1355 12.8394 18.7984 12.6444 17.2715 11.9994C16.0777 11.4939 15.3441 11.1316 14.8325 10.7932C14.1226 10.3274 13.8846 10.0647 13.8212 9.67851L13.7934 9.51131H15.8596H17.9259L17.5729 8.80269C17.1644 7.97862 16.9027 7.33768 16.7202 6.69275C16.5537 6.11948 16.4823 5.68953 16.3792 4.69428C16.2086 3.07002 15.9786 2.19818 15.5424 1.5652C15.1021 0.924253 14.3367 0.323119 13.6704 0.0962005C13.4047 0.00861811 13.3096 -0.00332495 12.8217 0.000656066C12.4807 0.000656066 12.1951 0.0245422 12.0643 0.0603714Z" fill="black"/>
<path d="M8.03492 2.04917C7.16639 2.19248 6.37717 2.46319 5.51261 2.92101C4.71546 3.343 4.47751 3.62167 4.16817 4.51342C3.9897 5.01901 3.92228 5.45294 3.90245 6.26905C3.88262 6.92592 3.87072 7.00554 3.77951 7.22051C3.63277 7.5589 3.61691 7.88136 3.72795 8.24363C3.91435 8.86865 4.29111 9.45386 4.70753 9.77234C4.81064 9.85196 4.96531 10.0271 5.0486 10.1625C5.22706 10.4412 5.50071 10.8154 5.70297 11.0423C5.83385 11.1896 5.83781 11.2015 5.81402 11.4404C5.77436 11.7947 5.59986 12.1331 5.32224 12.3799C4.98118 12.6865 4.43785 12.9293 3.19255 13.3393C1.95123 13.7454 1.56257 13.9126 1.20167 14.1873C0.555227 14.6809 0.293477 15.1825 0.142773 16.2176C0.0872499 16.5759 0 17.7264 0 18.0608V18.1922H8.11424H16.2285L16.2087 17.0855C16.1928 16.3171 16.169 15.8912 16.1254 15.6842C15.9429 14.8044 15.4036 14.2789 14.0909 13.6936C13.6268 13.4906 13.1906 13.3354 12.1753 13.0169C11.4178 12.778 10.938 12.567 10.6366 12.3321C10.3867 12.1371 10.1963 11.8743 10.1646 11.6832C10.1448 11.5598 10.1686 11.52 10.4026 11.2493C10.7238 10.8791 10.93 10.6044 11.1442 10.2461C11.2473 10.0829 11.4456 9.844 11.6439 9.66088C12.1317 9.19908 12.441 8.65766 12.5719 8.02866C12.6274 7.75795 12.5759 7.43549 12.4371 7.18468C12.3657 7.04933 12.3578 6.99757 12.3855 6.82639C12.4053 6.71492 12.4252 6.27701 12.4252 5.85104C12.4291 5.17825 12.4172 5.03095 12.3459 4.73237C12.1317 3.8884 11.747 3.41466 11.1402 3.2594C10.9776 3.21561 10.9459 3.18774 10.8705 3.03646C10.7635 2.81352 10.466 2.49106 10.232 2.33978C10.1329 2.27608 9.9108 2.18054 9.7363 2.12481C9.33574 1.99343 8.57825 1.96158 8.03492 2.04917ZM9.45868 2.72594C9.93856 2.84935 10.232 3.12802 10.3907 3.59778L10.4779 3.86053H10.7C11.2394 3.86451 11.5646 4.21086 11.7192 4.95133C11.7986 5.34147 11.7986 6.25312 11.7192 6.78658L11.6558 7.20061L11.7787 7.37577C11.9493 7.61463 11.9691 7.81368 11.8581 8.16401C11.7034 8.63775 11.3187 9.15927 10.9618 9.37026C10.8983 9.41007 10.7952 9.53348 10.7317 9.64495C10.5017 10.0669 10.1646 10.5367 9.85131 10.8671C9.49041 11.2453 9.44282 11.3767 9.51421 11.7708C9.66491 12.5591 10.3669 13.1244 11.7589 13.5742C13.1866 14.032 13.6189 14.1913 14.1384 14.45C15.0109 14.884 15.3441 15.2104 15.4631 15.7439C15.5186 15.9907 15.582 16.7789 15.586 17.2248V17.5154H8.12614H0.670238L0.694033 17.2248C0.781283 16.1897 0.880431 15.6643 1.047 15.3338C1.15408 15.1228 1.43169 14.8243 1.69741 14.6411C1.96312 14.454 2.2447 14.3465 3.44241 13.9484C4.05712 13.7454 4.74719 13.4866 4.97324 13.3791C6.00835 12.8775 6.46442 12.2247 6.46442 11.2453C6.46442 10.903 6.45649 10.8751 6.36131 10.7835C6.19871 10.6362 5.7228 10.0072 5.5483 9.71263C5.43726 9.52552 5.33018 9.40211 5.19137 9.31055C4.84634 9.07567 4.50923 8.58202 4.3625 8.09633C4.26731 7.77387 4.28714 7.59871 4.45371 7.37577C4.53699 7.26032 4.54493 7.21653 4.55286 6.52383C4.56079 5.64403 4.60838 5.26981 4.75909 4.80801C5.02084 4.02773 5.17154 3.84461 5.86161 3.47835C6.60323 3.08821 7.24174 2.86129 7.9913 2.72594C8.39185 2.6503 9.17314 2.65428 9.45868 2.72594Z" fill="black"/>
</svg>
