<svg width="14" height="17" viewBox="0 0 14 17" fill="none" xmlns="http://www.w3.org/2000/svg">
<path d="M5.47043 0.0770532C3.63481 0.296309 1.36214 1.09017 0.31322 1.87646L0 2.1184L0.0218526 6.06501C0.0437052 9.95869 0.0509894 10.0192 0.218526 10.5409C0.560883 11.6144 1.12177 12.5217 2.06871 13.5197C3.11035 14.6311 4.48706 15.6593 6.07502 16.5212L6.97097 16.9976L7.77224 16.6347C9.7244 15.7576 11.611 14.3136 12.6599 12.8997C13.097 12.31 13.585 11.3423 13.7817 10.6543C13.9492 10.1023 13.9492 9.98893 13.9784 6.10281L14.0002 2.1184L13.687 1.88402C12.9294 1.30942 11.174 0.58361 9.87008 0.31143C8.44967 0.00900824 6.81072 -0.0817183 5.47043 0.0770532ZM9.25821 1.39259C10.329 1.58916 11.1157 1.85378 12.0116 2.30741L12.8275 2.71568V6.14817C12.8275 9.2858 12.8129 9.61846 12.6891 10.1401C12.2302 12.0076 10.6713 13.7238 8.21657 15.0772L7.58285 15.4325V14.3665V13.3005H7.00011H6.41738V14.3287V15.3569L6.07502 15.1528C3.97717 13.9053 2.33094 12.3327 1.65351 10.9264C1.18004 9.95113 1.17276 9.8604 1.17276 6.11037V2.73081L1.81376 2.39058C2.89911 1.81598 4.0573 1.46063 5.47043 1.27918C6.27169 1.18089 8.44238 1.24894 9.25821 1.39259Z" fill="black"/>
<path d="M3.37987 3.17687C3.16863 3.26004 2.83356 3.48685 2.6296 3.67587C2.27267 4.00853 1.78463 4.65874 1.8429 4.71922C1.85747 4.74191 2.04686 4.6285 2.2581 4.48485C3.08122 3.91025 3.70038 3.72879 4.18842 3.92537C4.46522 4.03121 5.01153 4.58313 5.23006 4.96116C5.52143 5.48284 5.90749 5.58869 6.23528 5.24846C6.52665 4.9536 6.47566 4.68898 6.04589 4.15218C5.22277 3.12395 4.32682 2.79884 3.37987 3.17687Z" fill="black"/>
<path d="M9.20721 3.1618C8.73373 3.32813 8.40594 3.59275 7.94704 4.15979C7.52455 4.68903 7.48085 4.96121 7.76493 5.24851C7.93975 5.42996 8.18013 5.48289 8.42051 5.39216C8.48607 5.36192 8.66089 5.15022 8.81386 4.91584C8.96683 4.68147 9.24363 4.3488 9.43302 4.16735C10.227 3.4113 10.7952 3.4491 11.7203 4.34124C11.9679 4.57562 12.1719 4.73439 12.1719 4.68147C12.1719 4.47733 11.6911 3.67592 11.4507 3.46422C10.9409 3.02571 9.9502 2.88962 9.20721 3.1618Z" fill="black"/>
<path d="M3.02297 5.59627C2.81902 5.67943 2.59321 5.80796 2.52036 5.89113C2.39653 6.03478 2.39653 6.0499 2.52036 6.19355C2.70975 6.40525 3.3799 6.64719 3.7951 6.64719C4.18845 6.64719 4.82946 6.42037 5.09897 6.19355L5.26651 6.04234L5.09897 5.89113C4.82217 5.65675 4.18845 5.4375 3.77325 5.44506C3.56201 5.44506 3.22693 5.5131 3.02297 5.59627Z" fill="black"/>
<path d="M9.46221 5.58116C9.27282 5.65677 9.03972 5.79286 8.93046 5.87602L8.74835 6.02723L8.96688 6.21625C9.62246 6.79085 10.8681 6.76817 11.4945 6.17088L11.6548 6.01967L11.4727 5.86846C10.9628 5.45263 10.0887 5.33166 9.46221 5.58116Z" fill="black"/>
<path d="M2.41107 9.16481C2.41107 9.1875 2.78257 9.84526 3.23419 10.6316L4.0573 12.0529L5.24462 12.0756L6.43195 12.0983L6.70875 11.7732L6.98555 11.4481L7.30605 11.7732L7.62656 12.0983L8.78475 12.0756L9.94293 12.0529L10.6568 10.8055C11.5527 9.25554 11.6474 9.07409 11.509 9.1875C11.4508 9.23286 10.9409 9.63357 10.3727 10.0721C9.02512 11.123 9.01784 11.123 8.20201 10.2762L7.61927 9.67137H7.00012H6.38096L5.79822 10.2762C4.98239 11.123 4.97511 11.123 3.62753 10.0721C3.05937 9.63357 2.54947 9.24042 2.50577 9.19506C2.45478 9.15725 2.41107 9.14213 2.41107 9.16481Z" fill="black"/>
</svg>
