<svg width="20" height="16" viewBox="0 0 20 16" fill="none" xmlns="http://www.w3.org/2000/svg">
<path d="M14.5588 0C16.0753 0 17.3243 0.273284 18.3036 0.82432C19.3162 1.39409 19.8345 2.22632 19.8345 3.29572V14.5011H18.3786L18.3094 14.4081C17.5501 13.3869 16.3077 12.8727 14.5588 12.8727C13.5911 12.8727 12.7416 13.1006 12.0053 13.5557C11.2779 14.0054 10.8278 14.5482 10.6432 15.1866L10.5948 15.3542H9.23972L9.19131 15.1866C9.00669 14.5482 8.55655 14.0054 7.82917 13.5557C7.0929 13.1006 6.24336 12.8727 5.27574 12.8727C3.42937 12.8727 2.19118 13.3851 1.53338 14.3962L1.46507 14.5011H0V3.29572C0 2.22632 0.518308 1.39409 1.53091 0.82432C2.51023 0.273284 3.75914 0 5.27574 0C7.53028 0 9.07972 0.500548 9.90565 1.52357C10.6573 0.498275 12.2154 0 14.5588 0ZM9.22552 3.14767C9.19607 2.4196 8.84131 1.88343 8.13862 1.51432C7.40021 1.12644 6.45602 0.930553 5.30457 0.930553C4.18623 0.930553 3.25865 1.12628 2.51994 1.51432C1.81361 1.88534 1.442 2.4134 1.3838 3.09881V12.953C2.29119 12.1821 3.60139 11.8006 5.30457 11.8006C6.91862 11.8006 8.22959 12.2536 9.22538 13.16L9.22552 3.14767ZM14.5299 0.930553C13.3473 0.930553 12.3886 1.1388 11.6517 1.5508C10.9488 1.94388 10.6092 2.49058 10.6092 3.21688V13.1599C11.6049 12.2536 12.9159 11.8006 14.5299 11.8006C16.2515 11.8006 17.5615 12.1649 18.4507 12.9029V2.79535C18.3272 1.56641 17.0545 0.930553 14.5299 0.930553Z" fill="black"/>
</svg>
