<svg width="118" height="119" viewBox="0 0 118 119" fill="none" xmlns="http://www.w3.org/2000/svg">
<path d="M58.5 119V17C54 17 45.5 18 39.5 23C35.692 26.1733 31.5 35 31 46.5C28 46 27.009 46.9503 26.5 49.5C25.991 52.0497 27 54.8333 28 56C31 59.5 33.193 61.1053 33.5 61.5C37 66 38.5 72.1667 42 76.5C42 79 42 81 39.5 83.5C36 87 26.5 93 22 97.5C15.4808 104.019 15 110.5 15 119H58.5Z" fill="#FFD098"/>
<path d="M58.5 119V17C63 17 71.5 18 77.5 23C81.308 26.1733 85.5 35 86 46.5C89 46 89.991 46.9503 90.5 49.5C91.009 52.0497 90 54.8333 89 56C86 59.5 83.807 61.1053 83.5 61.5C80 66 78.5 72.1667 75 76.5C75 79 75 81 77.5 83.5C81 87 90.5 93 95 97.5C101.519 104.019 102 110.5 102 119H58.5Z" fill="#F1BA85"/>
<path fill-rule="evenodd" clip-rule="evenodd" d="M31.5 47C32.3333 50.5 34.0736 57.4162 37.5 60.5C42.5 65 46 67.5 48 68C49.3333 66.5 54.1 63.5 58.5 63.5C62.9 63.5 67.6667 66.5 69 68C71 67.5 74.5 65 79.5 60.5C82.9264 57.4162 84.6667 50.5 85.5 47C85.5 62.5 79.0456 72.6059 76.5 76C73.5 80 71 82 68 84C65 86 61.5 87 58.5 87C55.5 87 52 86 49 84C46 82 43.5 80 40.5 76C37.9544 72.6059 31.5 62.5 31.5 47Z" fill="#0A2F3D"/>
<path fill-rule="evenodd" clip-rule="evenodd" d="M40 82L40.5 101.5C42 107 47.7 113.5 58.5 113.5C69.3 113.5 75 107 76.5 101.5L77 82L84.5 88.5C84.5 89.7856 84.4273 91.4281 84.3464 93.2543C84.1128 98.5307 83.8114 105.34 85 109.5C86.6 115.1 93 118.167 96 119H58.5H21C24 118.167 30.4 115.1 32 109.5C33.1886 105.34 32.8872 98.5307 32.6536 93.2543C32.5727 91.4281 32.5 89.7856 32.5 88.5L40 82Z" fill="#7A917B"/>
<path d="M52.5 71.2804C52.5 70.7996 52.7642 70.3541 53.1925 70.1358C57.3703 68.006 59.9138 68.0182 63.8562 70.1419C64.2563 70.3574 64.5 70.7804 64.5 71.2348C64.5 72.2258 63.4111 72.8333 62.5139 72.4123C59.7363 71.1089 57.5284 71.1393 54.483 72.4999C53.5725 72.9066 52.5 72.2776 52.5 71.2804Z" fill="#FFD098"/>
</svg>
